<?xml version="1.0" encoding="utf-8"?>
<!-- Generator: Adobe Illustrator 17.0.0, SVG Export Plug-In . SVG Version: 6.00 Build 0)  -->
<!DOCTYPE svg PUBLIC "-//W3C//DTD SVG 1.1//EN" "http://www.w3.org/Graphics/SVG/1.1/DTD/svg11.dtd">
<svg version="1.1" id="Layer_1" xmlns="http://www.w3.org/2000/svg" xmlns:xlink="http://www.w3.org/1999/xlink" x="0px" y="0px"
	 width="300px" height="71px" viewBox="0 0 300 71" enable-background="new 0 0 300 71" xml:space="preserve">
<g id="XMLID_9_">
	<path id="XMLID_10_" fill="#673E1B" d="M108.905,9.475c-0.101,0.908-0.504,1.614-1.009,2.22c-0.605,0-1.211,0.101-1.816,0.101
		c-0.706,0-1.211-0.202-1.715-0.605c-1.11,0.706-1.715,1.614-1.715,2.825c2.018,0.807,3.329,1.715,4.035,2.825
		c0.908,1.412,1.412,2.724,1.412,3.935c0,0.303,0,0.605-0.101,0.908c0,0.303,0,0.605,0,1.009c-0.504,2.32-1.312,4.136-2.421,5.448
		c0.101,0.202,0,0.504-0.202,0.706c-0.202,0.202-0.303,0.404-0.504,0.706c0.101,0.101,0,0.303-0.101,0.504
		c-0.202,0.303-0.202,0.404-0.202,0.504c-0.303,0.605-0.404,1.715-0.202,3.329l-0.202,0.202c0.404,0.807,1.211,1.312,2.421,1.412
		c-0.101,0.303-0.404,0.504-0.706,0.504c-0.101,0-0.605-0.202-1.412-0.504c-0.807-0.908-1.211-1.917-1.211-3.027
		c0-0.605,0.101-1.11,0.303-1.513c0.605-1.513,1.312-3.027,2.22-4.338c0-0.202,0.101-0.504,0.404-1.009
		c0.303-0.404,0.404-0.807,0.404-1.009c0-0.101,0-0.303-0.101-0.404l-0.202-0.202c-0.908,0.908-2.32,1.513-4.136,1.715
		c-0.504,0.706-0.504,1.816-0.202,3.43c-0.101,0.605-0.202,1.614-0.202,3.128c0,1.312-0.101,2.32-0.404,3.128
		c0.101,0.101,0.202,0.202,0.202,0.303c0,0.706,0,1.715-0.202,3.027c0.101,0.605,0.101,1.412,0.202,2.421
		c0,0.504,0,1.11-0.202,1.917c0.101,0.202,0.202,0.404,0.202,0.807c0,0.303,0.101,0.605,0.303,0.807c0,0,0.101,0.807,0.303,2.22
		l0.706,1.211c-0.101,0.101-0.303,0.202-0.504,0.202c-0.202,0-0.404,0.101-0.504,0.202c-0.101-0.202-0.404-0.202-0.908,0
		c-0.605-0.303-1.513-0.706-2.825-1.009c0,0-0.504,0.202-1.211,0.706c-0.504,0.202-1.009,0.404-1.412,0.404
		c-0.303,0-0.605-0.101-0.807-0.202c-0.202-1.211-0.404-2.018-0.404-2.22c-0.404-1.614-0.807-2.825-1.211-3.632
		c0.101-0.303,0-0.706-0.303-1.211c-0.303-0.504-0.404-0.807-0.404-1.009c-0.706-1.614-1.917-3.935-3.43-7.163
		c-1.412-0.303-2.623-1.009-3.43-2.22c-0.101-0.504-0.303-1.211-0.706-2.018c-1.513,0.807-2.724,2.32-3.632,4.54l0.504-0.202
		c0,0.303-0.101,0.807-0.202,1.412c-0.101,0.706-0.101,1.211-0.101,1.513c0,1.009,0.202,1.917,0.706,2.623
		c0.504,0.706,1.11,1.211,1.917,1.715c0.807,0.404,1.614,0.605,2.522,0.504c1.312-0.605,2.018-1.412,2.119-2.623
		c0-0.303-0.101-0.807-0.504-1.211c-0.303-0.504-0.504-0.807-0.605-1.009c0.303,0,0.504-0.101,0.504-0.202
		c0.101,0.202,0.303,0.404,0.706,0.807c0.404,0.303,0.504,0.706,0.504,0.908c-0.101,1.009-0.202,1.614-0.303,1.917
		c-0.202,0.706-0.706,1.211-1.211,1.513c-0.101,0-0.404,0.101-0.706,0.404c-0.303,0.101-0.807,0.101-1.412,0.202
		c0,0-0.504-0.202-1.513-0.504c-0.605-0.202-1.009-0.504-1.312-0.807c-0.404-0.202-0.807-0.605-1.11-1.211
		c-0.303-0.504-0.605-0.908-0.908-1.412c0-0.101,0-0.303-0.101-0.504c-0.101-0.202-0.202-0.303-0.202-0.404
		c0-0.101,0.101-0.202,0.202-0.303l-0.202-0.202c0-0.605,0-1.312,0.202-2.22c0.404-1.715,1.614-3.733,3.632-6.053
		c-0.101-0.101-0.202-0.202-0.404-0.202c-0.303,0-0.504,0.101-0.504,0.101c-0.202,0.202-0.605,0.303-1.009,0.404
		c-0.504,0.101-0.807,0.202-1.009,0.404l-0.202-0.202c-0.202,0.101-0.303,0.202-0.404,0.202c-0.303,0.101-0.807,0.101-1.412,0
		l-0.202,0.202c-0.101-0.202-0.404-0.101-0.807,0.202c-0.101,0.504-0.202,0.908-0.202,1.211c0,0.303,0.101,0.706,0.202,1.211
		c-0.101,0.101-0.202,0.303-0.202,0.605s0,0.504-0.202,0.605l0.404,0.404c0,1.009,0,2.522-0.202,4.54
		c0.202,0.202,0.303,0.504,0.303,0.908c0.101,0.504,0.101,0.807,0.202,0.908c-0.101,0.202-0.101,0.404,0.101,0.706
		c0.202,0.504,0.303,0.706,0.303,0.807c0.303,0.605,0.908,1.513,1.917,2.623c0.404,0,0.908-0.101,1.513-0.303
		c0.605-0.202,1.009-0.404,1.312-0.404s0.706,0.101,1.009,0.404c0.303,0.202,0.706,0.706,1.211,1.412
		c-0.101,0.101-0.202,0.202-0.202,0.303l0.202,0.404c0,1.11-0.504,2.018-1.614,2.623c-0.303,0.101-0.706,0.303-1.412,0.504
		c-0.101-0.303-0.303-0.303-0.303-0.303l-0.202,0.202c-0.101-0.202-0.202-0.202-0.303-0.202c-0.202,0.101-0.303,0.202-0.404,0.202
		c-1.614,0-3.228-0.807-4.843-2.421c-0.303,0.404-0.908,0.807-1.715,1.11c-0.908,0.404-1.513,0.706-1.816,0.908
		c-0.303-0.101-0.706,0-1.412,0.101c-0.605,0.202-1.009,0.202-1.211,0.202c-1.412-0.101-2.421-0.504-3.329-1.211
		c-0.605-0.605-0.908-1.312-1.009-2.22l0.202-0.202l-0.101-0.202c0.202-0.504,1.009-1.009,2.22-1.614c0,0,0.303,0.101,0.807,0.202
		c0.303,0.101,0.605,0.303,0.706,0.605c0.807,0.101,1.412-0.303,2.018-1.009c0.404-0.706,0.706-1.412,1.11-2.119
		c0.202-3.027,0.404-4.641,0.404-4.641c0-0.202,0.101-0.504,0.303-0.908L73.897,35c0.101-0.504,0.202-1.614,0.202-3.228
		c0-1.412,0.101-2.421,0.404-3.027c-0.303-0.504-1.11-1.11-2.32-1.816c-1.11-0.605-1.816-1.211-2.018-1.816
		c-0.303-0.202-0.504-0.504-0.605-0.807l-0.404-0.908c0.101-0.101,0.101-0.303-0.101-0.504c-0.101-0.202-0.202-0.404-0.303-0.504
		l-0.101-0.202l0.202-0.202c-0.101-0.101-0.202-0.202-0.202-0.404c0-0.303,0.101-0.504,0.101-0.504v-1.614
		c0.202-0.504,0.404-0.908,0.504-1.412c0.202-0.504,0.504-0.807,1.009-1.009l0.202,0.202c-0.706,0.404-1.009,1.11-1.009,2.22
		c-0.202,0.504-0.303,0.908-0.303,1.412c0,1.412,0.908,3.027,2.724,4.943c0.404,0.605,1.211,1.009,2.421,1.211
		c0.303-0.101,0.404-0.404,0.303-0.807c-0.101-0.404-0.101-0.706,0.101-0.908c-0.101-0.101-0.202-0.202-0.202-0.303
		c0.202-0.202,0.101-0.504-0.202-0.908c0.101-0.202,0.202-0.605,0.202-1.11c0-0.706,0-1.009,0-0.908
		c0.202-1.009,0.202-1.917,0-2.623c0.101-0.202,0.202-0.605,0.202-1.11c0-0.706,0-1.009,0-1.11c-0.101-0.303-0.303-1.11-0.404-2.22
		c-0.101-0.908-0.404-1.715-0.807-2.22c-0.706-0.908-1.412-1.412-2.32-1.412c-0.303,0-0.605,0.101-0.908,0.202
		c-0.202,0.101-0.303,0.202-0.504,0.202c-0.202,0-0.404-0.101-0.706-0.202c-0.303-0.101-0.504-0.202-0.706-0.202
		c-0.605-0.303-0.908-1.11-0.908-2.22c0-0.303,0-0.504-0.202-0.504c0.504-0.908,1.211-1.513,2.32-1.816
		c1.009-0.101,2.018-0.202,3.027-0.303c0,0.202,0.404,0.303,1.009,0.404c0.605,0.101,1.009,0.303,1.211,0.605l0.202-0.202
		c0.101,0,0.303,0.202,0.504,0.404c0.303,0.202,0.504,0.303,0.706,0.303c0.101,0,0.202,0,0.303-0.101
		c1.009-0.807,2.119-1.312,3.329-1.614c0.101,0,0.303,0.101,0.605,0.202c0.303,0.101,0.504,0.202,0.605,0.202
		c0.202,0,0.303-0.101,0.504-0.202c1.412,0.706,2.522,1.715,3.531,3.027c0.605,0.908,1.412,2.22,2.22,4.136
		c0.908,2.018,1.513,3.43,2.018,4.136c0,0.101,0,0.303,0.202,0.605c0.202,0.303,0.202,0.504,0.202,0.605s0,0.101-0.101,0.202
		c0.605,1.211,1.211,2.421,1.816,3.632c0.706,1.513,1.513,2.623,2.32,3.43c2.421,1.614,3.531,3.228,3.43,4.843l0.404,0.807
		c0.303-0.504,0.504-1.009,0.504-1.816c0-0.303,0-0.908-0.101-1.614s-0.101-1.211-0.101-1.614c0-0.303,0-0.706,0.101-0.908
		c0.101-0.504,0.101-1.211,0.101-2.22c0-1.009,0-1.715,0.202-2.22c-0.202-0.504-0.303-1.11-0.404-2.018c0-0.706,0-1.412,0-2.119
		c0-0.706-0.101-1.312-0.303-1.715c0.101-0.202,0.202-0.303,0.202-0.404l-0.504-0.504c-0.504,0.504-0.908,1.009-1.412,1.513
		c-0.504,0.605-0.706,1.11-0.605,1.715c-0.101,0.202-0.202,0.404-0.504,0.706c0.101,0.101,0.202,0.303,0.202,0.404
		s-0.101,0.303-0.202,0.605c-0.101,0.202-0.202,0.404-0.202,0.605c0.303,0.202,0.404,0.605,0.404,1.312c0,0.605,0,1.11,0.101,1.312
		c0.504,0.706,1.11,1.715,1.917,3.128c-1.009-0.303-1.917-1.211-2.825-2.926c0,0-0.101-0.605-0.404-1.614
		c0-0.303,0.202-1.513,0.404-3.632c-0.101-0.706,0.404-1.412,1.513-2.22c1.009-0.807,1.614-1.513,1.614-1.917
		c0-0.303-0.202-0.706-0.605-1.11c-0.908-0.908-1.715-1.412-2.522-1.412c-0.303,0-0.605,0.101-0.908,0.202
		c-0.706,0.303-1.412,0.303-2.119-0.202c-0.303-0.202-0.504-0.504-0.605-0.807L90.14,9.576l0.303-0.404
		c-0.101-0.605,0.101-1.211,0.706-1.917c0.504-0.303,1.009-0.605,1.614-0.706c0.605-0.101,1.211-0.202,1.715-0.202
		c0.202,0.101,0.303,0.202,0.404,0.202s0.303-0.101,0.504-0.101c0.605,0,1.412,0.303,2.32,0.908
		c0.101-0.101,0.202-0.101,0.303-0.101c0.202,0,0.504,0.202,0.807,0.605c0.303,0.404,0.605,0.605,0.908,0.605
		c0.303-0.101,1.009-0.504,1.917-1.211c0.101,0.101,0.404,0,0.706-0.202c0.303-0.202,0.605-0.303,0.706-0.303
		c0.101,0,0.202,0,0.303,0.101c0.404-0.202,0.908-0.404,1.412-0.404c0.101,0,0.908,0.202,2.421,0.504
		C108.098,7.76,108.703,8.567,108.905,9.475z M85.298,45.896c0-0.908-0.303-1.513-1.009-2.018c-0.504-0.303-1.211-0.202-2.119,0.303
		c0,0.101-0.101,0.303-0.101,0.504c0,0.605,0.303,1.211,0.908,1.614l-0.303,0.404l-0.202-0.202c-0.303,0.101-0.706,0.202-1.11,0.202
		c-1.513,0-3.128-1.009-4.742-2.926c-0.504,1.009-1.211,1.917-2.119,2.522c-1.009,0.605-2.018,0.908-3.027,0.807
		c-0.202,0.101-0.303,0.101-0.504,0s-0.404-0.202-0.404-0.202c-0.101,0-0.202,0.101-0.303,0.202l-0.202-0.202
		c-0.303,0-0.504,0.101-0.504,0.202c-0.202-0.202-0.303-0.303-0.303-0.504c0-0.101,0.202-0.303,0.706-0.504
		c0.404-0.202,0.706-0.404,0.706-0.807c-0.101-0.101-0.202-0.202-0.202-0.404c0-0.303,0-0.504,0-0.504
		c-0.101-0.202-0.303-0.404-0.605-0.404c-0.303-0.101-0.504-0.202-0.807-0.303l-1.009,0.504c-0.303,0.504-0.504,0.908-0.504,1.412
		c0,0.303,0.101,0.706,0.404,1.11c1.11,0.807,1.917,1.11,2.421,1.009c0.202,0.202,0.504,0.303,0.908,0.303
		c0.504-0.101,0.706-0.101,0.807-0.101l0.202-0.202c0.101,0,0.202,0.101,0.303,0.202c0.101-0.202,0.504-0.303,1.009-0.404
		c1.614-0.807,2.724-1.614,3.329-2.421c1.614,1.513,3.027,2.421,4.035,2.825c0.101-0.101,0.202-0.101,0.504,0s0.504,0.101,0.504,0
		c0.202-0.101,0.504,0,0.807,0.202c1.11-0.303,1.917-0.807,2.421-1.614l-0.202-0.202L85.298,45.896z M81.464,7.76
		c-0.504-0.101-0.908-0.202-1.412-0.202c-0.908,0-2.32,0.504-4.237,1.412l-2.018-1.412c-0.706,0-1.211-0.101-1.412-0.404
		c-0.706-0.101-1.816-0.101-3.228,0.303c-1.009,0.908-1.513,1.715-1.412,2.421c0.101,0.504,0.404,0.706,0.908,0.807
		c0.504,0,1.009,0,1.513,0c0.303-0.202,0.404-0.404,0.404-0.605s-0.202-0.504-0.605-0.908c-0.404-0.303-0.605-0.605-0.706-0.807
		l0.404-0.303l0.202,0.202l0.101-0.202c0.101,0,0.202,0,0.404,0.202c0.101-0.303,0.303-0.404,0.504-0.303
		c0.202,0.101,0.404,0.101,0.504-0.101c0,0,0.101,0.101,0.303,0.202c0.101,0.101,0.202,0.202,0.303,0.202s0.202-0.101,0.303-0.202
		l0.202,0.202l0.101-0.202c0.404,0.101,0.908,0.303,1.513,0.807c0.303,0,0.807,0.202,1.211,0.605
		c0.504,0.404,0.807,0.605,1.009,0.605C77.126,9.072,78.74,8.265,81.464,7.76z M75.209,30.863c-0.101-0.202-0.101-0.504,0-0.908
		c0.101-0.605,0.101-1.412-0.202-2.623c0.101-0.202,0.101-0.404,0-0.706l0.202-0.202c-0.101,0-0.202-0.101-0.202-0.303v-0.404v2.522
		c-0.101,0.303-0.202,0.807-0.202,1.412c0,0.605,0,1.11-0.101,1.312c-0.101,0.303-0.101,0.605-0.101,0.908
		c0,0.303,0,0.807,0.101,1.513c0.101,0.706,0.101,1.11,0.101,1.412c0,0.605-0.101,1.11-0.404,1.513l0.202,0.202l-0.202,0.202
		c0.101,0.101,0.202,0.101,0.202,0.202c0,0,0,0.101-0.101,0.202s-0.101,0.202-0.101,0.303c0,0.101,0,0.101,0.101,0.202
		c0.101,0.202,0,0.706-0.101,1.211c-0.101,0.605-0.101,1.009-0.101,1.211l-0.202,0.202c0.101,0.202,0,0.605-0.101,0.908
		c-0.101,0.404-0.101,0.706-0.101,0.908l0.202-0.202l-0.202-0.202c0.202-0.202,0.303-0.504,0.303-0.908
		c0-0.504,0.202-0.807,0.404-1.009c-0.101-0.101-0.202-0.202-0.202-0.404c0-0.101,0-0.303,0.101-0.504s0.101-0.404,0.101-0.504
		s0-0.101-0.101-0.202c0.202-0.908,0.303-2.018,0.303-3.531C75.007,32.881,75.108,31.67,75.209,30.863z M75.209,19.362l-0.202-0.504
		c0-1.11,0-2.22,0-3.329c-0.101-1.11-0.504-2.119-1.009-2.926c0,0.202,0.101,0.504,0.303,0.908c0.202,0.404,0.303,0.706,0.202,0.908
		c0.202,0.202,0.303,0.504,0.303,0.908c-0.101,0.404,0,0.706,0.303,0.908c-0.202,0.101-0.202,0.303-0.101,0.504
		c0.101,0.202,0.101,0.404-0.101,0.504c0.101,0.202,0.101,0.605,0.202,1.211C75.108,19.261,75.108,19.463,75.209,19.362z
		 M75.209,23.398c0-0.202-0.101-0.504-0.101-0.605c0-0.202,0-0.404,0.101-0.605c-0.202,0-0.303,0.202-0.303,0.404
		C74.906,22.691,75.007,22.994,75.209,23.398z M75.007,21.279c0-0.101-0.101-0.202-0.101-0.303c0-0.101,0-0.202,0.101-0.404
		c0.101-0.202,0.101-0.303,0.101-0.404s-0.101-0.202-0.202-0.303C74.906,20.169,74.906,20.674,75.007,21.279z M75.209,25.315V23.7
		l-0.202,1.715L75.209,25.315z M76.117,29.653c-0.101-0.202-0.101-0.404,0-0.706c-0.303,1.715-0.504,2.825-0.504,3.329
		c0,0.706,0.101,1.211,0.303,1.715c0.101,0.101,0.101,0.303,0,0.404c-0.101,0.202-0.202,0.303-0.202,0.404s0.101,0.202,0.202,0.303
		c-0.101,0.303-0.101,0.908-0.101,1.614c0,0.706,0,1.211-0.202,1.614c0.101,0.908,0.202,1.412,0.202,1.715
		c-0.101,0.202-0.202,0.404-0.303,0.706c-0.101,0.202-0.101,0.504-0.101,0.706c0.202-0.706,0.303-1.11,0.202-1.211
		c-0.101-0.101,0-0.303,0.101-0.404c0.101-0.202,0.202-0.303,0.202-0.404c0-0.101-0.101-0.202-0.202-0.303
		c0.101-0.101,0.202-0.202,0.202-0.404c0-0.303,0-0.504-0.101-0.504c0-0.908,0-2.22,0.101-4.136
		C76.117,31.872,76.117,30.561,76.117,29.653z M76.218,22.691l-0.202-0.202c0-0.504,0-1.211,0-2.119
		c0.101-0.101,0.202-0.303,0.202-0.504c0-0.101,0-0.303-0.101-0.504c-0.101-0.202-0.101-0.404-0.101-0.605
		c0-0.101,0-0.202,0.101-0.303v-2.623l0.202-0.202l-0.202-0.202c0-0.101,0-0.202,0.202-0.404c-0.202-0.202-0.404-0.504-0.303-0.908
		c0-0.404,0-0.706-0.202-0.908l0.404,6.457c-0.101,0.202-0.101,0.404,0,0.706l-0.202,0.202c0,0,0,0.404,0,1.11
		C75.915,22.288,76.016,22.591,76.218,22.691z M76.117,24.81c0-0.303,0-0.706-0.202-1.009c0.202,0.101,0.202,0.303,0.101,0.504
		C75.814,24.507,75.915,24.709,76.117,24.81z M76.117,27.231c-0.101-0.202-0.101-0.504,0-1.009c0.101-0.504,0.101-0.807,0-1.009
		c-0.202,0.101-0.202,0.303-0.101,0.504c0.101,0.202,0.101,0.404-0.101,0.504l0.202,0.202c-0.101,0.101-0.202,0.303-0.202,0.504
		C75.915,26.929,76.016,27.131,76.117,27.231c-0.101,0.101-0.101,0.101-0.202,0.202L76.117,27.231z M85.096,26.323
		c-0.807-0.303-1.614-1.009-2.421-2.018c-0.706-0.807-1.412-1.513-2.018-2.32c0-0.101-0.202-0.504-0.605-0.908
		c-0.303-0.404-0.404-0.706-0.303-0.908l-0.303-0.404l-0.404-1.917c0.202-0.101,0.202-0.303,0.101-0.504
		c-0.101-0.202,0-0.404,0.303-0.504l0.504,0.404l-0.202,0.202l0.202,0.202c0,0.101-0.101,0.202-0.202,0.404
		c0.101,1.11,0.605,2.119,1.614,3.128c0.908,1.009,2.018,1.614,3.128,1.917c0.101-0.202-0.101-0.605-0.504-1.009
		c-0.706-1.513-1.312-3.027-2.018-4.54c-0.908-2.018-1.816-3.43-2.825-4.439c-0.303,0.303-0.303,0.605-0.202,1.009
		c0,0.101-0.101,0.303-0.202,0.404c0,0.303-0.101,0.404-0.101,0.504c0,0.101,0.101,0.303,0.202,0.404
		c-0.404,1.614-0.504,4.136-0.202,7.466l-0.202,0.202c0.202,0.101,0.202,0.202,0.202,0.303c-0.202,0.303-0.303,0.706-0.303,1.11
		c0.101,0.404,0.101,0.807,0.202,1.11c0,0.202,0,0.504,0,1.009c0.101,0.504,0,0.807,0,1.009l0.404,0.404
		c0.101-0.202,0.303-0.202,0.605-0.101c0.303,0.101,0.504,0.101,0.605-0.101l0.202,0.202l0.202-0.202
		c0.202,0.101,0.605,0,1.11-0.101c0.504-0.101,0.908-0.202,1.11-0.101l0.404-0.303l0.202,0.202l0.404-0.404l0.202,0.202
		C84.49,27.131,84.995,26.828,85.096,26.323z M86.508,23.196c-0.605-0.706-1.312-2.22-2.32-4.641
		c-0.908-2.22-1.715-3.733-2.522-4.439c0.504,0.908,1.009,1.917,1.412,2.825c0.605,1.11,0.908,2.018,1.11,2.926
		c0.303,0.303,0.706,0.908,1.11,1.715s0.706,1.412,1.009,1.715L86.508,23.196z M87.719,23.7c0.101-0.504-0.101-1.11-0.504-1.715
		c-0.504-0.807-0.807-1.312-0.908-1.614l0.202-0.202c-0.706-1.513-1.917-3.632-3.43-6.558c0.101,0.404,0.303,0.908,0.706,1.513
		l-0.202,0.202c0.303,0.202,0.605,0.706,0.908,1.312c0.303,0.605,0.504,1.009,0.706,1.211c0.101,0.605,0.706,1.816,1.715,3.632
		c0,0.303,0.101,0.706,0.303,1.009C87.517,23.297,87.618,23.599,87.719,23.7z M94.176,27.736c-1.715-1.11-3.531-2.018-5.448-2.825
		c-0.101,0.101-0.404,0-0.807-0.101c-0.404-0.101-0.605-0.101-0.807-0.101c-0.101-0.101-0.404-0.303-0.706-0.504
		c-0.202,0.101-0.605,0-1.11-0.202c-0.504-0.202-0.908-0.202-1.11-0.101c-0.101-0.101-0.303-0.202-0.504-0.303
		c-0.202-0.101-0.404-0.101-0.605-0.101l3.128,2.119l0.202-0.202l0.202,0.202c0.404,0.202,0.706,0.303,0.706,0.202
		c0.101,0.101,0.303,0.202,0.605,0.202c0.303,0,0.504,0.101,0.605,0.404c-0.504,0.404-1.009,0.807-1.513,1.211
		c-0.605,0.504-0.908,1.11-0.908,1.715c0,0,0.101,0.202,0.202,0.404c0.101,0.303,0.303,0.303,0.504,0.202
		c0.202-0.504,0.706-1.009,1.513-1.715c0.908-0.605,1.917-0.908,3.128-0.908C92.259,27.332,93.167,27.433,94.176,27.736z
		 M94.276,40.952c-0.101-0.202-0.303-0.706-0.605-1.412c-0.303-0.504-0.504-1.009-0.404-1.412c-0.404-0.504-0.605-0.807-0.504-1.009
		c-0.303-0.303-0.504-0.807-0.504-1.412c-0.303-0.504-0.706-1.312-1.211-2.623c-0.504-1.11-0.908-2.018-1.412-2.623
		c-0.101,0.101-0.202,0.202-0.202,0.303c0,0.101,0.101,0.202,0.202,0.303l-0.202,0.202c0.202,0.202,0.404,0.504,0.605,1.009
		c0.202,0.504,0.303,0.807,0.504,0.908C91.25,34.899,92.561,37.522,94.276,40.952z M92.561,34.193v-0.404
		c-0.504-1.009-1.009-2.018-1.614-2.926C91.351,31.57,91.855,32.679,92.561,34.193z M108.199,9.475
		c-0.202-0.504-0.706-1.009-1.412-1.715c-0.404-0.202-0.908-0.404-1.513-0.404c-0.303,0-0.807,0.101-1.513,0.202
		s-1.211,0.202-1.513,0.202c-0.605,0.504-1.11,0.706-1.412,0.706l-0.706,0.706c-0.101,0.101-0.303,0.202-0.504,0.202
		s-0.504-0.202-0.908-0.504c-0.404-0.303-0.706-0.504-0.908-0.504c-0.202,0-0.404-0.101-0.706-0.404
		C96.9,7.76,96.698,7.558,96.496,7.558c-0.101,0-0.101,0-0.202,0.101c-0.303-0.101-0.706-0.202-1.211-0.504
		c-0.101,0.101-0.706,0.101-1.816,0.202c-0.908,0.101-1.513,0.303-1.816,0.807c-0.303,0.202-0.404,0.605-0.404,0.908
		c0,0.101,0.101,0.605,0.404,1.513c0.303,0.202,0.605,0.404,1.009,0.404c0.404,0,0.807-0.101,1.009-0.404
		c0.303-0.404,0.303-0.706,0-1.009l0.303-0.101l-0.404-0.303l-0.202-0.706c0-0.303,0.101-0.504,0.404-0.605l0.202,0.202
		c0.202,0,0.404,0,0.706-0.202c2.22,0.101,4.035,1.009,5.549,2.623l0.504-0.504c0.202-0.202,0.404-0.303,0.605-0.202
		c0.303-0.404,0.908-0.706,1.614-0.908c1.11-0.303,1.715-0.504,1.715-0.504c0.101,0.101,0.404,0.101,0.706,0l0.202,0.202
		l0.202-0.202c0,0,0.202,0.101,0.504,0.404l-0.202,0.202c-0.202,0.404-0.303,0.706-0.202,0.706c0,0-0.101,0.101-0.202,0.303
		c0,0.303,0.504,0.807,1.412,1.412C107.695,11.291,108.098,10.686,108.199,9.475z M93.369,35.706l-0.504-1.009
		c0.101,0,0.202,0.202,0.202,0.404v0.404C93.167,35.605,93.268,35.706,93.369,35.706z M94.176,37.421
		c0-0.101-0.101-0.404-0.404-0.706l0.202-0.202l-0.202-0.101l-0.202,0.202C93.772,36.715,93.974,37.017,94.176,37.421z M96.9,33.083
		l-0.202-0.202l0.202-0.202c-0.101-0.706-0.202-1.11-0.202-1.211c-0.202-0.404-0.504-0.807-0.807-1.312
		c-0.303-0.404-0.706-0.706-1.11-0.807c0.504,0.908,1.11,2.32,1.917,4.237C96.698,33.285,96.799,33.184,96.9,33.083z
		 M100.229,47.005c-0.303-0.504-0.908-1.009-1.715-1.715c-0.202,0.101-0.404,0.404-0.605,0.908
		c-0.202,0.504-0.504,0.706-0.807,0.807l0.202,0.202l0.908-0.706c0.202-0.101,0.404,0,0.706,0.101
		c0.303,0.101,0.404,0.202,0.504,0.101C99.523,46.904,99.825,47.106,100.229,47.005z M99.321,22.49v-0.706h-0.202
		c0.101-0.605,0.101-1.513,0-2.623v-1.917l-0.202-0.202l0.202-0.202c-0.202-0.202-0.303-0.605-0.404-1.009s-0.202-0.807-0.303-1.211
		l-0.202,0.202c0.303,0.605,0.504,1.412,0.605,2.421c0.101,1.715,0.202,2.623,0.202,2.623l-0.202,0.202c0,0.504,0,1.211,0,2.119
		c0.101,0.101,0.202,0.202,0.202,0.303C99.018,22.49,99.321,22.49,99.321,22.49z M99.119,31.57
		c-0.202,0.504-0.202,1.009-0.202,1.614c-0.101-0.101-0.101-0.303,0-0.504s0.202-0.303,0.202-0.404s-0.101-0.202-0.202-0.303
		C99.119,31.771,99.22,31.57,99.119,31.57z M99.119,25.819l-0.202-0.504c0,0,0.101-0.706,0.202-2.119
		c-0.101,0.202-0.101,0.404-0.101,0.605c0,0.202,0,0.404,0.101,0.605l-0.202,0.202c0.101,0.101,0.202,0.202,0.202,0.303
		c0,0.101,0,0.202-0.101,0.303c-0.101,0.202-0.101,0.303-0.101,0.404C99.22,25.617,99.321,25.718,99.119,25.819z M99.624,35.908
		c0,0.101,0,0.202-0.202,0.404c-0.202,0.202-0.303,0.303-0.303,0.404s0.101,0.101,0.202,0.202c-0.101,0.202-0.202,0.504-0.404,0.908
		h0.404C99.321,37.724,99.422,37.118,99.624,35.908z M99.926,34.697l-0.202-0.202c0.101-0.101,0.202-0.202,0.202-0.404
		c0-0.303,0-0.504,0-0.504c-0.202,0.101-0.202,0.303-0.101,0.504c0.101,0.202,0.101,0.404-0.101,0.504h0.202V34.697z
		 M100.431,17.849c0-0.303,0-0.605-0.202-1.009c-0.101-0.404-0.303-0.807-0.404-1.211c-0.101,0.101-0.202,0.303-0.101,0.404
		c0.101,0.202,0.101,0.303,0.101,0.404c0.101,0.202,0.202,0.504,0.202,0.807c-0.101,0.404-0.101,0.605,0,0.706l-0.202,0.202
		l0.202,0.202c0,0.101,0,0.202-0.202,0.303c0.202,0.202,0.303,0.404,0.303,0.706c0,0.404,0,0.605,0.101,0.706l-0.202,0.202
		c0.101,0.404,0.202,0.908,0.202,1.614c0,1.009,0,1.513,0,1.513c-0.101,0.101-0.202,0.202-0.202,0.404
		c0,0.101,0.101,0.303,0.202,0.605c0.101,0.202,0.101,0.404,0,0.605c-0.101,0.504-0.202,1.009-0.202,1.513
		c0,0.101,0.101,0.807,0.202,2.018c0.101,0.807,0,1.513-0.202,2.119c0.101-1.412,0.202-3.531,0.202-6.356
		C100.229,21.38,100.229,19.261,100.431,17.849z M100.027,31.57v-0.504c0,0,0,0.303,0.101,0.706
		C100.128,31.67,100.128,31.57,100.027,31.57z M107.089,21.683c-0.101-0.202-0.202-0.404-0.101-0.605
		c0.101-0.404,0.202-0.605,0.202-0.605c0-0.101-0.101-0.202-0.303-0.303c0.101-0.202,0-0.504-0.101-0.807
		c-0.202-0.404-0.202-0.706-0.202-0.908c-1.211-2.22-2.623-3.228-4.237-3.128c0.101,1.312,0,3.128-0.202,5.549l0.202,0.202
		c-0.404,0.605-0.504,1.513-0.202,2.825c-0.101,0.101-0.202,0.202-0.202,0.303c0,0.101,0.101,0.202,0.202,0.404
		c0.101,0.202,0.202,0.303,0.202,0.404l0.202-0.202c0.202-0.101,0.404,0,0.706,0.202C105.273,24.407,106.484,23.398,107.089,21.683z
		"/>
	<path id="XMLID_42_" fill="#673E1B" d="M147.949,33.789c-0.101,0.202-0.202,0.605-0.202,1.211s-0.101,1.009-0.303,1.211
		c0.101,0.404,0,0.908-0.303,1.412c-0.303,0.706-0.504,1.211-0.504,1.513l0.202,0.202c-0.706,1.11-1.211,1.816-1.614,2.22
		c-0.706,0.807-1.312,1.412-1.917,1.715v-0.404c2.32-2.119,3.632-4.439,3.834-6.86c-0.202-0.101-0.202-0.202-0.101-0.404
		c0.101-0.202,0.101-0.303-0.101-0.404c0.101-0.202-0.202-1.009-0.706-2.119c-0.202-0.504-0.706-1.009-1.513-1.412
		c-0.605,1.11-0.807,2.018-0.504,2.724c-0.404,3.027-1.614,5.751-3.43,8.273c-2.018,2.724-4.54,4.54-7.264,5.347
		c-0.202,0-0.504,0.101-0.807,0.101c-0.303,0.101-0.504,0.202-0.706,0.404c-1.211,0-2.018,0.101-2.522,0.202
		c0,0-0.908-0.101-2.421-0.202c-0.908-0.101-1.715-0.303-2.22-0.605l-0.202,0.202c-0.605-0.303-1.513-0.807-2.724-1.715h-0.404
		c-2.018-1.614-3.733-4.035-5.246-7.163c-0.706,0.101-1.211,0.504-1.614,1.211c-0.303,0.605-0.605,1.211-0.908,1.917
		c0.101,2.018,0.706,3.228,1.816,3.531c0.101,0.202,0,0.404-0.202,0.605c-0.605-0.101-1.211-0.706-1.816-1.715l0.202-0.202
		c0-0.101-0.101-0.303-0.303-0.605c-0.202-0.303-0.303-0.504-0.303-0.706s0.101-0.303,0.303-0.504c0-0.101-0.101-0.101-0.101-0.202
		s0.101-0.303,0.202-0.605c0.101-0.303,0.101-0.504,0.101-0.706c0.202-0.101,0.303-0.404,0.404-0.706
		c0.101-0.504,0.202-0.807,0.303-0.807c0.101-0.202,0.404-0.504,0.908-0.908c0.504-0.404,0.807-0.706,0.807-0.908
		c0-0.202-0.101-0.303-0.303-0.504c0.101-0.101,0.101-0.202,0.101-0.303s-0.101-0.303-0.202-0.504
		c-0.101-0.202-0.202-0.404-0.202-0.504c0.101-1.11-0.404-2.119-1.614-3.027c-1.312-1.009-2.018-1.917-2.018-2.825l-0.404-0.303
		c0.101-0.101,0.202-0.202,0.202-0.303c0-0.101-0.101-0.202-0.202-0.404c-0.101-0.202-0.202-0.303-0.202-0.404
		s0.101-0.202,0.202-0.303c-0.303-0.404-0.303-0.706-0.202-0.807l-0.202-0.202c0.101-0.202,0.101-0.404,0-0.706
		c-0.101-0.303-0.202-0.605-0.202-0.605c0-0.202,0.101-0.504,0.303-0.706l-0.202-0.202c0.101-0.101,0.202-0.202,0.202-0.303
		c0-0.404,0-1.11,0.202-2.018l0.404-0.404l-0.202-0.202l0.404-0.303l-0.202-0.202c1.211-2.724,3.027-4.338,5.246-4.843l0.504-0.504
		l-0.202-0.202c1.715-3.935,4.338-6.86,7.97-8.979c0.202,0,0.504-0.101,1.009-0.303c0.504-0.202,0.807-0.303,1.11-0.303
		c0.101,0,0.303,0,0.404,0.101c0.101,0,0.303-0.101,0.504-0.202c0.202-0.101,0.404-0.202,0.504-0.202
		c0.202,0,0.303,0.101,0.404,0.202c0.101-0.202,0.303-0.202,0.605-0.101c0.303,0.101,0.504,0.101,0.605-0.101l0.807,0.404
		c0.303-0.101,0.807,0,1.513,0.202c0.908,0.404,1.412,0.605,1.513,0.605c0.404,0.202,0.807,0.404,1.211,0.706
		c0.404,0.202,0.807,0.303,1.211,0.202c0.404-0.404,0.908-0.706,1.614-0.807c0.504-0.101,1.11-0.202,1.614-0.404l0.303,0.404
		c0.202-0.101,0.303-0.202,0.404-0.202l0.202,0.202c0.202-0.101,0.706,0.101,1.715,0.605c1.312,1.009,2.119,2.32,2.32,3.935
		c-0.101,0.202-0.202,0.303-0.202,0.303c-0.303-0.101-0.404-0.404-0.303-1.009c-0.504-1.513-1.513-2.623-3.027-3.329
		c-0.303,0-0.404-0.101-0.504-0.202c-0.504-0.101-1.11-0.101-1.816,0l-0.202-0.202c-0.404,0.202-1.009,0.504-1.715,1.009
		c0.202,0.404,1.009,1.412,2.22,2.926c1.009,1.312,1.614,2.32,1.917,3.128l0.404,0.404c0,0.504,0.202,1.11,0.807,1.816l1.513,4.54
		c0.101,0.303,0.101,0.908,0.202,1.715c0.101,0.202,0.202,0.303,0.202,0.404c0,0-0.101,0.101-0.101,0.202s0,0.202,0.101,0.404
		c0.101,0.202,0.101,0.303,0.101,0.404s-0.101,0.303-0.202,0.404c0,0.101,0.101,0.303,0.202,0.504
		c0.101,0.202,0.202,0.404,0.202,0.605c0,0.101-0.101,0.303-0.202,0.404c0.706,0.807,1.715,2.018,2.926,3.935
		c-0.101,0.202-0.101,0.404,0.101,0.706c0.101,0.202,0.202,0.404,0.303,0.706c0,0.303,0,0.605,0.101,0.908
		C147.848,33.184,147.949,33.587,147.949,33.789z M116.674,18.152l-0.303-0.303c-2.522,1.009-4.035,3.128-4.54,6.154l0.202,0.202
		c-0.202,1.412-0.303,2.22-0.202,2.724c-0.202,2.22,0.605,4.136,2.522,5.751l0.504-0.504c0-0.303-0.101-0.908-0.202-1.614
		c-0.101-0.706-0.202-1.211-0.202-1.614c0-0.605,0.101-1.009,0.303-1.412c-0.101-0.202-0.202-0.605-0.202-1.009
		c0-0.706,0-1.009,0-0.908l0.202-0.202l-0.202-0.202c0.101-0.101,0.202-0.303,0.303-0.706c0.101-0.303,0.101-0.504,0.202-0.706
		c0-0.101-0.101-0.202-0.101-0.303c0-0.101,0.101-0.404,0.202-0.807s0.101-0.706,0.101-0.908c0-0.101,0.101-0.202,0.202-0.303
		c0.101-0.202,0.202-0.303,0.202-0.303c0-0.101-0.101-0.202-0.202-0.303c0.303-0.303,0.504-0.706,0.706-1.412
		C116.371,18.858,116.573,18.353,116.674,18.152z M115.564,12.804c0.101,1.614-0.807,3.531-2.724,5.851
		c-0.101-0.202,0-0.605,0.303-0.908c0.504-0.605,0.706-0.908,0.706-0.908c0-0.202,0.202-0.404,0.504-0.807
		c0.303-0.404,0.404-0.706,0.404-0.908c0-0.101,0-0.202-0.101-0.303c0.202-0.202,0.303-0.605,0.202-1.211
		c-0.101-0.605,0-1.009,0.101-1.312l-0.101-0.202c0,0-0.101-0.706-0.303-2.018c0.202,0.101,0.303,0.202,0.404,0.504
		c0.101,0.202,0.202,0.504,0.303,0.706C115.16,11.291,115.261,11.796,115.564,12.804z M140.786,33.285l-0.202-0.202l0.202-0.202
		c-0.101-0.202-0.202-0.404-0.202-0.706c0-0.101,0-0.404,0.101-0.706c0.101-0.303,0.101-0.504,0.101-0.706
		c0-0.101,0-0.202-0.101-0.303h-0.706c0.101,0.101,0.202,0.303,0.202,0.504c0,0.101,0,0.303-0.101,0.605
		c-0.101,0.202-0.101,0.404-0.101,0.504s0,0.202,0.101,0.303c0,0.101-0.101,0.303-0.202,0.504c-0.101,0.202-0.202,0.404-0.202,0.605
		c0,0.101,0.101,0.303,0.202,0.404l-0.404,0.303c0.101,0.202,0,0.706-0.101,1.211c-0.101,0.605-0.101,1.009-0.101,1.211
		l-0.303,0.303c0,0.303-0.101,0.706-0.303,1.11c-0.202,0.504-0.303,0.807-0.303,1.009c0,0.101,0,0.303,0.101,0.404l-0.303,0.404
		c-0.504,1.412-1.211,2.724-2.22,3.935c-1.11,1.312-2.32,2.22-3.632,2.724c-0.101-0.101-0.303,0-0.605,0.101
		c-0.303,0.101-0.504,0.101-0.504,0.101c-0.504,0.303-1.312,0.404-2.32,0.404c-1.211,0-2.119,0-2.522,0.101
		c-3.632-0.908-6.457-3.733-8.575-8.575l0.202-0.202l-0.404-0.303l0.202-0.202c-0.202-0.101-0.404-0.303-0.404-0.504
		c-0.101-0.303-0.202-0.504-0.202-0.807c0.101-0.303,0-0.807-0.101-1.513c-0.101-0.706-0.101-1.211-0.101-1.513
		c-0.202-0.101-0.404-0.303-0.404-0.605c0-0.101,0-0.202,0.101-0.404c0.101-0.202,0.101-0.303,0.101-0.404
		c0-0.202-0.101-0.404-0.303-0.605c0,0,0-1.412,0-4.035c0-1.816,0.101-3.228,0.303-4.237c-0.202-0.101-0.101-0.404,0.202-0.807
		c0-0.101-0.101-0.202-0.101-0.303c0-0.101,0.101-0.404,0.202-0.908c0.101-0.303,0.101-0.605,0.101-0.807l0.202-0.202
		c0-0.303,0.101-0.706,0.303-1.312c0.202-0.504,0.303-0.908,0.303-1.11l0.202-0.202c0.202-0.404,0.303-0.605,0.202-0.706
		l1.513-3.027c2.119-3.228,4.237-5.246,6.457-5.851c0.404-0.101,0.908-0.404,1.715-0.807c0.303,0.101,0.706,0.202,1.312,0.202
		c0.908,0,1.312,0,1.211-0.101l0.202-0.202l0.303,0.404c0.303,0,0.504-0.101,0.504-0.202c3.531,1.412,6.053,4.439,7.365,9.282
		c0.202,0.404,0.303,0.605,0.202,0.706c0.202,0.303,0.303,0.504,0.303,0.706c0.504,1.11,0.605,2.32,0.504,3.531
		c0.101,0.202,0.202,0.504,0.202,1.11c0,0.605,0.202,0.908,0.504,1.11l0.404-0.404c-0.101-0.202-0.202-0.504-0.202-0.807
		c0-0.605,0-0.807,0-0.908c0,0,0-0.101,0.202-0.303l-0.202-0.202c0.101-0.202,0-0.404-0.101-0.807
		c-0.101-0.404-0.202-0.605-0.303-0.706c0.101-0.706-0.101-1.412-0.504-2.018c-0.605-3.834-2.522-6.961-5.851-9.483
		c-0.706-0.101-1.312-0.303-1.816-0.807l-0.202,0.202c-0.101-0.101-0.202-0.202-0.504-0.202c-0.303,0-0.404-0.101-0.504-0.303
		c-0.101,0.101-0.202,0.202-0.404,0.202c-0.101,0-0.303,0-0.404-0.101c-0.202-0.101-0.303-0.101-0.404-0.101
		c-0.101,0-0.101,0-0.202,0.101c-0.101,0-0.101-0.101-0.202-0.101c-0.101,0-0.303,0-0.404,0.101
		c-0.202,0.101-0.303,0.101-0.404,0.101c-0.101,0-0.303-0.101-0.404-0.202c-0.101,0.202-0.404,0.404-0.807,0.404
		c-0.202,0-0.504,0-0.706-0.101c-0.101,0.202-0.404,0.303-0.807,0.504c-0.404,0.101-0.605,0.303-0.807,0.605l-0.202-0.202
		c-2.825,1.816-5.246,4.742-7.062,8.777c-0.303,0.706-0.605,1.614-0.908,2.724c-0.404,1.513-0.605,2.421-0.807,2.825
		c0.101,2.22-0.101,4.136-0.504,5.851c0.101,0.303,0.202,0.706,0.202,1.211c-0.101,0.706-0.202,1.11-0.202,1.11
		c0.202,0.202,0.303,0.504,0.202,0.908c-0.101,0.404,0,0.706,0.202,0.908c-0.101,0.202-0.202,0.504-0.202,0.807
		c0,0.202,0.101,0.605,0.202,1.11c0.101,0.504,0.202,0.908,0.202,1.11c0.504,0.504,0.605,1.009,0.504,1.715
		c0.101,0.101,0.202,0.202,0.202,0.303c0.504,0.807,0.706,1.412,0.706,1.816c1.816,3.834,4.338,6.356,7.365,7.567
		c0.303,0.202,0.908,0.303,1.614,0.404c0.706,0.101,1.211,0.202,1.412,0.303c0.908-0.202,1.715-0.202,2.522-0.202l0.202-0.202
		c0.101,0,0.202,0,0.303,0.202l0.404-0.303c0.303,0,0.605-0.101,1.11-0.303c0.404-0.202,0.706-0.303,0.908-0.303
		c2.018-1.009,3.733-2.724,5.044-5.044l-0.202-0.202c0.605-0.605,0.908-1.11,0.807-1.513c0-0.202,0.101-0.404,0.303-0.706
		c0.202-0.303,0.303-0.504,0.202-0.706c0.504-0.605,0.605-1.312,0.504-2.119c0.404-0.605,0.605-1.412,0.504-2.22
		c0-0.101,0.101-0.202,0.202-0.303c0.101-0.202,0.202-0.303,0.202-0.404s-0.101-0.202-0.202-0.303L140.786,33.285z M139.071,22.994
		v-1.513c0-0.101,0-0.202-0.202-0.303l0.202-0.202l-0.202-0.202c0-0.101,0-0.202,0.202-0.303c-0.202-0.404-0.404-1.11-0.706-2.018
		c-0.202-0.908-0.504-1.614-0.706-2.018l0.202-0.202c-0.908-2.421-2.421-4.641-4.742-6.86c-0.908-0.605-1.715-0.908-2.32-0.807
		c-0.101,0-0.202-0.101-0.303-0.202c-0.202-0.101-0.303-0.202-0.404-0.202c-0.101,0-0.202,0.101-0.303,0.202
		c-0.303-0.101-0.605-0.202-1.009-0.101c-0.706,0.101-1.009,0.101-1.11,0.101c-0.202,0.101-0.605,0.101-1.009,0
		c-0.202,0.202-0.807,0.504-1.715,0.807c-3.128,2.32-5.044,4.943-5.751,7.97c-0.404,0.605-0.706,1.412-1.009,2.421
		c-0.504,1.715-0.706,2.522-0.807,2.623c0.101,0.101,0.202,0.202,0.202,0.404c0,0.101,0,0.303-0.101,0.504
		c-0.101,0.202-0.101,0.404-0.101,0.504s0,0.101,0.101,0.202l-0.202,0.202l0.202,0.202c-0.202,0.504-0.404,1.211-0.404,2.22
		c0,1.513,0.101,2.32,0.101,2.32c-0.101,0.404,0,0.908,0.101,1.614c0.101,0.706,0.101,1.211,0.101,1.513
		c0.101,0.202,0.202,0.303,0.303,0.504c0.101,0.202,0.101,0.303,0,0.504c0,0.504,0,1.211,0,2.119
		c0.202,0.303,0.404,0.706,0.404,1.211c0.101,0.504,0.202,1.009,0.202,1.412c0.303,0.303,0.504,0.807,0.504,1.412
		c0.101,0.101,0.202,0.303,0.303,0.404c0.101,0.101,0.101,0.303,0.101,0.404c0.303,0.202,0.605,0.605,0.908,1.211
		c0.303,0.605,0.605,1.009,1.009,1.312c-1.614-3.531-2.522-6.457-2.724-8.575c-0.202-0.504-0.404-1.211-0.404-2.119
		c0-1.11,0-1.816-0.101-2.22c0.303-0.404,0.303-0.706,0.202-0.807c-0.202-0.303-0.202-0.706-0.202-1.211
		c0.101-0.605,0.202-1.009,0.202-1.11c0-0.202,0-0.706,0.101-1.211c0.101-0.605,0.101-1.009,0.101-1.11
		c0.101-0.706,0.404-1.715,0.807-3.027c0-0.404,0.101-1.009,0.404-1.816c0.303-0.807,0.404-1.412,0.504-1.816
		c0-0.101,0.101-0.202,0.202-0.504c0.202-0.202,0.202-0.404,0.101-0.504c1.917-3.834,3.935-6.255,6.053-7.264
		c1.211-0.202,1.816-0.303,1.816-0.303c0.202-0.202,0.504-0.303,0.908-0.303c0.605,0.101,0.908,0.101,1.009,0.101
		c0.807,0.202,1.211,0.303,1.211,0.303c2.421,0.807,4.338,2.926,5.851,6.457l-0.202,0.202c0.202,0.202,0.404,0.605,0.605,1.211
		c0.202,0.605,0.303,0.908,0.504,1.11c0,1.009,0.101,1.816,0.504,2.522c-0.101,0.202,0,0.504,0.101,1.009s0.101,0.807,0.101,1.009
		c0.101,0,0.202,0.101,0.202,0.303v0.404h0.101V22.994z M137.355,33.789c-1.816-1.312-2.623-2.724-2.32-4.237
		c0.101-0.404,0.404-0.908,0.908-1.614c0.504-0.605,0.807-1.11,0.908-1.513c-0.706-0.706-1.715-2.22-3.027-4.54
		c0-0.101,0.101-0.101,0.101-0.202c0-0.101-0.101-0.303-0.303-0.605c-0.202-0.303-0.303-0.504-0.303-0.605
		c0-0.101,0-0.101,0.101-0.202l-0.202-0.202c-0.202-0.605-0.303-1.211-0.202-2.018l-0.202-0.202l0.202-0.202l-0.404-0.404
		c0-0.908,0.202-1.917,0.404-3.027c0.303-1.715,0.404-2.724,0.504-3.027c-0.101-0.202-0.202-0.504-0.504-0.706
		c-0.303-0.202-0.504-0.404-0.807-0.504c-1.11-0.504-1.917-0.706-2.32-0.706c-0.101,0-0.202-0.101-0.303-0.202l-0.202,0.202
		c-1.614,0-3.329,1.11-5.044,3.329c-0.202,0.908-0.706,2.119-1.312,3.834c-0.202,0.404-0.404,0.706-0.404,0.908
		c0,0.404,0.404,0.807,1.11,1.211s1.11,0.908,1.11,1.412c0.101,0.101,0.202,0.303,0.202,0.605c0,0.303,0.101,0.504,0.404,0.605
		c-0.101,0.101-0.202,0.202-0.202,0.303s0.101,0.202,0.202,0.303c0.101,0.101,0.202,0.202,0.202,0.303
		c0,2.119-0.908,3.935-2.926,5.347c0,0.101-0.202,0.101-0.504,0.202c-0.303,0.101-0.504,0.202-0.504,0.404
		c0.101,0.706,0.202,1.412,0.202,2.22s-0.101,1.513-0.202,2.119l0.202,0.202c0,0,0,0.101-0.202,0.303
		c0.101,0.202,0.202,0.504,0.303,0.807s0.101,0.504,0.101,0.807c0.303,0,0.404,0.101,0.504,0.202
		c2.825-0.404,5.044-1.917,6.558-4.742c0.202-0.404,0.504-0.908,1.009-1.715c-0.101-0.101,0-0.303,0.101-0.504
		c0.101-0.303,0.101-0.504,0.101-0.605c0.202-0.303,0.404-0.807,0.404-1.513c0-0.605,0-1.11,0-1.715
		c0-0.303,0.101-0.605,0.202-0.807l-0.303-0.303c0-0.101,0-0.202,0.202-0.404c-0.101-0.101-0.202-0.202-0.202-0.404
		c0-0.303,0-0.504,0.101-0.504c0-0.101,0.101-0.101,0.303-0.202c0,0.202,0.202,0.807,0.404,1.715
		c0.202,0.706,0.303,1.312,0.303,1.816c0,0.303-0.101,0.706-0.202,1.412c-0.202,0.706-0.202,1.11-0.202,1.312
		c-0.706,1.715-1.312,2.926-1.715,3.632c-0.807,1.312-1.816,2.32-2.926,2.926c-0.101,0-0.504,0.202-1.009,0.504
		c-0.404,0.202-0.706,0.303-1.009,0.303c-0.504,0.101-1.312,0.504-2.32,1.009l1.513,4.742l0.504,0.504
		c0.706,1.715,2.119,2.825,4.237,3.329c0.303-0.101,0.807,0,1.513,0.202c0.101-0.202,0.404-0.404,0.706-0.404
		c0.303,0,0.504-0.101,0.706-0.202c0.807,0.101,1.917-0.404,3.329-1.715c0.807-1.009,1.312-1.513,1.312-1.614
		c0.404-0.605,0.706-1.211,0.706-1.816c0.101-0.504,0.303-1.211,0.807-2.22C137.154,36.311,137.255,35.201,137.355,33.789z
		 M124.139,21.178c-0.202-0.303-0.303-0.504-0.202-0.807c-0.101-0.101-0.303-0.303-0.605-0.706
		c-0.202-0.202-0.404-0.404-0.706-0.404c-0.101,0.404-0.202,0.908-0.303,1.614c-0.101,0.706-0.202,1.211-0.303,1.614
		c0,0.101-0.101,1.412-0.404,4.035l0.202,0.202l-0.202,0.202l0.202,0.202c0.404,0,0.807-0.202,1.009-0.504l0.202,0.202l0.807-1.009
		c0.303-0.404,0.404-0.706,0.404-1.009c0-0.101,0.101-0.303,0.303-0.504c0.202-0.202,0.202-0.404,0.202-0.504
		c0-0.101-0.101-0.202-0.202-0.404c0.101-0.101,0.202-0.404,0.202-0.807v-0.706L124.139,21.178z M139.071,33.789l-0.202-0.202
		l0.202-0.202c0.303-0.303,0.303-0.706,0-1.11c0.101-0.303,0.101-0.605,0.101-0.807c0-0.303,0-0.605-0.101-0.807l-0.706,0.706
		l0.202,0.202c0,0.101,0,0.202-0.202,0.303c0,0.706-0.101,1.211-0.202,1.513c-0.101,0.404-0.101,1.009-0.202,1.816l0.202,0.202
		c0,0.404-0.101,0.706-0.303,0.807l0.202,0.202c-0.101,0.202-0.202,0.303-0.202,0.404c-0.202,0.504-0.202,1.009-0.202,1.513
		c-0.202,0.101-0.303,0.303-0.303,0.605v0.404c-1.312,2.926-3.027,4.943-5.246,5.851c-0.404,0.202-1.009,0.404-1.715,0.303
		c-0.807,0-1.312,0.101-1.614,0.303c0.202,0,0.404,0,0.706,0.202c3.935-0.404,6.558-2.22,7.869-5.347
		c0-0.303,0.101-0.807,0.303-1.312c0.303-0.504,0.404-0.908,0.303-1.211l0.202-0.202c-0.101-0.404,0-1.009,0.303-1.715
		c0.303-0.706,0.404-1.211,0.404-1.412c0-0.101,0-0.303-0.101-0.404C138.869,34.294,138.869,34.092,139.071,33.789z M137.961,21.783
		c-0.303-0.908-0.504-1.614-0.504-2.119c-0.303-1.312-0.706-2.623-1.009-3.935c-0.504-1.412-1.11-2.522-2.018-3.329l-0.303,0.404
		l0.202,0.202c-0.202,0.101-0.404,0.404-0.303,0.807c0,0.404-0.101,0.706-0.303,0.908c0,0.605,0,1.513,0,2.522
		c0.303,0.303,0.504,0.908,0.807,1.614c0.303,0.807,0.605,1.412,0.908,1.715c0.303,0.404,0.706,0.807,1.11,1.211
		c0.404,0.404,0.908,0.706,1.312,0.807C137.759,22.389,137.86,22.187,137.961,21.783z M146.637,30.762
		c-0.303-0.807-0.807-1.513-1.513-2.22c-0.706-0.706-1.513-1.412-2.22-2.018c-1.412-0.807-2.926-1.614-4.338-2.421
		c-1.614-0.908-3.027-1.917-4.035-2.926c0.706,1.816,1.816,3.228,3.531,4.237c0.101,0.202,0.504,0.404,1.11,0.504
		c0.605,0.202,0.908,0.303,0.908,0.504c0,0.101-0.101,0.303-0.303,0.605c-0.404,0-0.908,0-1.513-0.202
		c-0.706,0.202-1.513,0.807-2.32,1.917c0,0.202,0,0.404,0,0.605c0,0.202-0.101,0.404-0.303,0.504
		c0.101,0.101,0.202,0.303,0.202,0.706c0.101,0.404,0.101,0.605,0.303,0.605c0.101,0,0.202,0,0.303-0.101l-0.202-0.202
		c0-0.908,0.706-1.715,2.119-2.522l0.202,0.202c0.504-0.101,1.11-0.202,1.715-0.202c0.605,0,1.211,0.101,1.816,0.202l0.202-0.202
		c0,0.101,0.101,0.202,0.303,0.202l0.404-0.101c0.605,0.303,1.211,0.706,1.816,1.11s1.11,0.807,1.513,1.312L146.637,30.762z"/>
	<path id="XMLID_53_" fill="#673E1B" d="M184.066,48.519c-0.303-0.706-0.706-1.816-1.412-3.228l0.202-0.202l-0.303-0.303
		c0-0.101,0.101-0.202,0.101-0.303c0-0.101,0-0.303-0.101-0.404c-0.101-0.202-0.101-0.303-0.101-0.404s0.101-0.303,0.202-0.404
		l-0.202-0.202v-1.715c0.101-0.101,0.101-0.303,0.101-0.706c-0.101-0.303,0-0.605,0.202-0.706c-0.101-0.101-0.101-0.504,0.202-1.211
		c-0.101-0.101-0.202-0.202-0.202-0.303c0-0.706-0.101-1.513-0.404-2.421c0-0.202-0.101-0.605-0.404-0.908
		c-0.404-0.504-0.605-0.807-0.605-1.009c-0.908-0.303-1.614-0.504-2.018-0.504c-0.404,0-0.807,0.101-1.11,0.303l-0.807,0.908
		c0.101,0.101,0.202,0.303,0.202,0.605c0,0.202-0.101,0.404-0.202,0.605c0.605,0.908,1.11,1.312,1.513,1.312
		c0.101,0,0.303,0,0.404-0.101c0.101-0.101,0.303-0.202,0.404-0.303c0.101-0.202,0.202-0.303,0.303-0.504s0-0.404-0.101-0.706
		c-0.101-0.303-0.101-0.504-0.101-0.706c0.303-0.101,0.605,0,0.807,0.303l0.706,0.706c0,0.101,0,0.303,0.101,0.504
		c0.101,0.202,0.202,0.303,0.202,0.404c0,0.101-0.101,0.202-0.202,0.303c0.404,0.908,0.605,1.715,0.504,2.522l0.202,0.202
		c-0.101,0.404-0.202,1.009-0.202,1.816l-0.202,0.202c0,0.504,0,1.11,0.202,2.018c-0.101,0.202-0.202,0.303-0.202,0.404l0.202,0.202
		l-0.202,0.202c0.101,0.202,0.202,0.303,0.202,0.404l-0.202,0.202c0.101,0.202,0.202,0.303,0.202,0.404l-0.202,0.202
		c0.202,0.202,0.404,0.504,0.404,0.807c0.101,0.303,0.202,0.706,0.202,1.009c-0.101,0.101-0.202,0.202-0.202,0.303
		c0,0.303,0,0.404,0,0.404c-0.101,0-1.211-0.605-3.531-1.816c-0.303,0-0.706,0.303-1.312,0.706c-0.605,0.404-1.11,0.605-1.412,0.504
		c-0.404,0.303-1.412,0.706-3.027,1.009c-0.303-0.101-0.706-0.202-1.312-0.101c-0.605,0.101-1.11,0.101-1.412-0.101
		c-0.404,0-1.009,0-1.816,0c-0.202,0-0.605-0.101-0.908-0.404c-0.404-0.202-0.706-0.303-0.908-0.303l-0.303-0.404l-0.202,0.202
		l-3.733-1.816c-0.303,0.101-1.009,0.404-1.917,1.009c-0.807,0.504-1.412,0.706-1.917,0.706c-1.009,0.504-1.917,0.807-2.623,0.807
		c-0.303,0-0.605,0-0.908-0.101l-0.202,0.202c-0.101-0.101-0.202-0.202-0.303-0.202l-0.202,0.202
		c-0.202-0.101-0.303-0.202-0.404-0.101c-0.101,0.101-0.303,0-0.605-0.101c-0.303-0.101-0.504-0.101-0.807-0.101
		c-0.706-0.303-1.11-0.605-1.513-0.807c-0.504-0.404-0.807-0.908-0.908-1.412c0-0.404,0-1.009,0.202-1.715
		c0,0-0.101-0.101-0.101-0.202s0.101-0.303,0.303-0.504c0.202-0.202,0.303-0.404,0.303-0.504c0.202-0.303,0.605-0.504,0.908-0.504
		c0.202,0,0.504,0.101,0.908,0.202s0.706,0.202,0.908,0.101c0.303,0.303,0.605,0.504,0.908,0.504s0.706-0.101,1.312-0.404
		c0.605-0.303,1.009-0.504,1.211-0.504c0,0,0.101-0.303,0.504-0.706c0,0-0.807-1.009-2.22-3.027c0,0-0.101-0.706-0.303-2.018
		c0.101-0.404,0.202-1.009,0.202-1.816s0.101-1.412,0.202-1.715c0.706-2.623,2.119-4.843,4.136-6.659
		c0.101-0.202,0.101-0.706,0.101-1.412c-0.101-0.706,0-1.211,0.101-1.513c-1.614-0.807-2.623-1.513-3.128-1.917
		c-1.11-0.908-1.614-2.018-1.614-3.228c-0.303-1.412-0.202-2.421,0.202-3.027c0-0.303,0.202-0.807,0.706-1.513
		c-0.101-0.101,0-0.303,0.101-0.605l0.404-0.605c0.202-0.404,0-0.706-0.706-1.009l-0.202,0.202c-0.101,0-0.202-0.101-0.303-0.101
		c-0.202,0-0.504,0.101-0.807,0.303c-0.404,0.202-0.706,0.303-0.908,0.303c-0.101,0.101-0.303,0.202-0.504,0.202
		c-0.202,0-0.404-0.101-0.706-0.202c-0.303-0.101-0.504-0.303-0.605-0.404c-0.101-0.101-0.202-0.303-0.504-0.504
		c-0.303-0.202-0.404-0.404-0.404-0.605c0.101-0.202,0.202-0.303,0.202-0.404l-0.202-0.202c0.101-0.202,0.202-0.303,0.202-0.404
		c-0.101-0.504,0-1.009,0.504-1.513c1.009-1.009,2.32-1.513,4.136-1.513c0.807,0,1.513,0.101,2.22,0.404l0.504-0.202
		c0.706,0.303,1.816,0.908,3.228,1.715l0.202-0.202c0.202,0.202,0.504,0.404,0.807,0.706c0.303,0.202,0.605,0.404,0.807,0.404
		s0.504-0.101,0.706-0.404l0.504-0.504l0.202,0.202c0.404-0.504,1.11-0.807,2.119-1.009c1.211-0.202,1.917-0.504,2.32-0.605
		c0.504,0,1.412,0.101,2.926,0.303c0.706,0.101,1.614,0.706,2.623,1.715c0.303,1.009,0.504,1.513,0.504,1.715
		c0,0.404-0.202,0.706-0.504,1.009l-1.412,1.009c-0.202-0.101-0.303-0.202-0.404-0.202c-0.101,0.101-0.303,0.101-0.404,0.101
		c-0.303,0-0.706-0.101-1.211-0.404c-0.504-0.202-0.908-0.404-1.211-0.404c-0.101,0.101-0.404,0.101-0.706,0
		c-0.303,0.202-0.605,0.303-1.009,0.504c-0.303,0.202-0.605,0.404-0.706,0.706c0.908,1.816,1.211,3.733,1.009,5.952
		c-0.101,0.303-0.202,0.908-0.303,1.715c0,0.706-0.303,1.211-0.706,1.513c0.101,0.202,0,0.504-0.303,0.908
		c-0.303,0.404-0.404,0.706-0.303,0.908c-0.101,0.101-0.303,0.202-0.404,0.504c-0.101,0.202-0.303,0.404-0.404,0.504
		c0.404,0.303,1.009,0.504,2.018,0.504h0.303c0.605,0,1.11,0.101,1.412,0.202c3.329,1.11,5.448,2.926,6.255,5.246
		c0,0.101,0.101,0.706,0.202,1.715c0.101,0.605,0,1.11-0.202,1.614L176.298,35c-0.101,0.202-0.202,0.303-0.202,0.404
		c0,0.706-0.101,1.11-0.404,1.312c-1.211,1.614-2.32,2.22-3.027,2.018c-0.101,0.202-0.303,0.202-0.504,0.101
		c-0.202-0.101-0.404-0.101-0.504,0.101l-0.202-0.202c-0.101,0.101-0.202,0.202-0.303,0.202c-0.101,0-0.202-0.101-0.404-0.202
		c-0.202-0.101-0.303-0.202-0.404-0.202c-0.303-0.202-0.605-0.605-0.807-1.009s-0.303-0.807-0.504-1.11
		c0.101-0.202,0.202-0.303,0.202-0.404s-0.101-0.202-0.101-0.404s0.101-0.605,0.404-0.908c0.404-0.504,0.605-0.807,0.706-0.908
		c0.303,0.101,0.504,0.202,0.504,0.303s-0.202,0.303-0.504,0.504c-0.303,0.303-0.504,0.504-0.404,0.807
		c-0.202,1.412,0.202,2.32,1.211,2.724c0.202,0,0.303,0,0.504,0.101c0.202,0.101,0.303,0.202,0.504,0.303l0.202-0.202
		c0.807,0,1.312-0.202,1.715-0.504c1.009-0.706,1.614-2.22,1.715-4.641c-0.303-2.421-1.816-4.237-4.439-5.549
		c-0.504-0.101-1.11-0.303-2.018-0.706h-2.32c-0.101,0-0.303,0.101-0.504,0.101c-0.303,0-0.504,0.101-0.706,0.404
		c0.605,0.303,1.009,0.908,1.11,1.816c0.101,0.706,0.202,1.312,0.303,2.018c-0.101,0.202-0.404,0.605-1.11,1.312
		c-0.706,0.605-1.009,1.211-1.009,1.715c0,0.303,0.101,0.605,0.303,0.908l-0.404,0.706c-0.202,3.632,0.908,6.356,3.228,8.374
		c0,0,0.504,0.303,1.513,0.807c0.303,0,0.706,0.101,1.312,0.202c0.605,0.101,1.009,0.202,1.412,0.202
		c0.404,0,0.706-0.101,1.009-0.202c0.706,0,1.412-0.202,2.32-0.807c1.312-1.11,2.32-2.421,2.926-3.935c0-0.303,0-0.706,0.202-1.11
		l-0.202-0.202l0.202-0.202c-0.605-0.303-1.211-1.11-1.917-2.522c0.404-1.412,1.009-2.22,1.715-2.623
		c0.202-0.101,0.404-0.202,0.706-0.101c0.303,0.101,0.504,0.101,0.605-0.101c0.202,0.101,0.303,0.202,0.404,0.202
		c0.504,0,1.312,0.404,2.522,1.412c0.101,0.303,0.303,0.807,0.706,1.412c0.101,0.404,0.101,1.009,0,1.917
		c0.101,0.303,0.202,0.504,0.202,0.706c0,0.202-0.101,0.504-0.202,0.807c0.101,0.807,0.202,1.614,0.202,2.421
		c0,0.908-0.101,1.715-0.202,2.421c0.202,0.706,0.605,1.917,1.009,3.531c0.202,0.101,0.303,0.202,0.202,0.404
		C184.167,48.317,184.066,48.418,184.066,48.519z M178.316,44.988l-2.018,1.412c-0.303,0.101-0.807,0.202-1.412,0.303l-0.404,0.404
		c-0.101-0.101-0.101-0.202-0.202-0.202c-0.101,0-0.202,0-0.303,0.101c-0.101,0.101-0.202,0.101-0.303,0.101s-0.101,0-0.202-0.101
		l-0.202,0.202c-0.101,0-0.202,0-0.404-0.202l-0.303,0.303l-1.412,0.101c-0.605,0-1.11-0.101-1.412-0.404
		c-0.101,0.101-0.303,0.101-0.706,0c-0.303-0.101-0.605-0.101-0.706,0c-0.303,0-0.605-0.101-0.908-0.303
		c-0.303-0.202-0.605-0.404-0.908-0.504c-0.706-0.101-1.513-0.404-2.32-1.009c-0.605-0.605-1.312-1.11-1.917-1.715
		c-0.202-0.101-0.404-0.202-0.605-0.202c-0.303,0-0.706,0.303-1.009,0.807c-0.404,0.605-0.706,0.908-0.908,1.009
		c-1.816,1.009-3.43,1.513-4.843,1.513c-1.11,0-2.119-0.303-3.027-1.009c0,0,0.101-0.202,0.404-0.504l0.202,0.202
		c0.303-0.101,0.706-0.504,1.11-1.009c-0.101-0.504-0.303-0.807-0.807-1.009c-0.504-0.202-0.908-0.303-1.412-0.202
		c-0.706,0.101-1.009,0.605-1.009,1.312c0,0.101,0,0.303,0.101,0.404c-0.101,0.605,0.202,1.11,0.706,1.513s1.009,0.706,1.513,1.009
		c0.101-0.101,0.202-0.202,0.404-0.202c0.101,0,0.303,0,0.404,0.101c0.202,0.101,0.303,0.101,0.404,0.101
		c0.101,0,0.202,0,0.303-0.101c0.303,0,0.605,0.101,0.908,0.101c2.018,0,4.136-0.908,6.457-2.825l0.202,0.202
		c0.303,0,0.404-0.101,0.504-0.202c0.504,0.504,1.11,0.908,2.119,1.412c1.11,0.504,1.816,0.908,2.119,1.211
		c0.303,0,0.605,0.101,1.11,0.303c0.404,0.202,0.807,0.303,1.009,0.303c0.101,0,0.202,0,0.404-0.101
		c0.101,0,0.303,0.101,0.504,0.202s0.404,0.202,0.504,0.202c0.101,0,0.303-0.101,0.404-0.202c0.807,0.303,1.614,0.202,2.32-0.202
		c0.101,0.101,0.202,0.202,0.303,0.202c0.101,0,0.202,0,0.303-0.101c0.101-0.101,0.202-0.101,0.303-0.101s0.101,0,0.202,0.101
		c0.101-0.101,0.504-0.202,1.11-0.303c0.504-0.101,0.807-0.303,0.908-0.605l0.202,0.202
		C177.004,46.299,177.811,45.694,178.316,44.988z M173.675,9.98c-0.101-0.202-0.303-0.605-0.706-1.009
		c-0.202-0.202-0.404-0.504-0.807-0.706c-0.404-0.202-0.706-0.404-1.009-0.504c-3.228-0.202-6.053,0.706-8.475,2.522l-2.926-1.816
		l-0.202,0.202c-0.404-0.404-0.908-0.706-1.614-0.908c-1.11-0.303-1.715-0.404-1.816-0.504c-0.605,0.101-1.11,0.101-1.513-0.202
		c-0.101,0.202-0.404,0.404-0.807,0.404c-0.202,0-0.504,0-0.706-0.101c-0.303,0.303-0.504,0.404-0.706,0.404
		c-0.908,0.908-1.312,1.513-1.312,1.816c0,0.101,0,0.303,0.101,0.404l-0.101,0.101c0.101,0.202,0.404,0.404,0.706,0.807
		c0.303,0.303,0.605,0.404,1.009,0.202c0.101,0,0.202,0.101,0.404,0.202l0.303-0.404c0.303-0.101,0.404-0.404,0.303-1.009
		c-0.303-0.504-0.706-0.706-1.312-0.807c0.101-0.303,0.404-0.504,0.908-0.605c0.504-0.101,0.807-0.202,0.908-0.404
		c0.202,0.101,0.605,0.202,1.11,0.202c0.504,0,0.908,0,1.11,0.202c0.101-0.101,0.202-0.101,0.303-0.101
		c0.202,0,0.504,0.101,0.807,0.303c0.303,0.202,0.605,0.404,0.706,0.404l0.202-0.202c0.908,0.605,2.119,1.513,3.733,2.724
		c0.504-0.504,1.11-1.009,1.917-1.412c1.312-0.706,2.018-1.009,2.018-1.009c0.101-0.101,0.404-0.202,0.706-0.202l0.605,0.101
		c0.605-0.202,1.211-0.404,1.917-0.404c1.211,0,2.22,0.303,3.027,1.009c0,0.303-0.303,0.504-0.706,0.504
		c-0.504,0-0.807,0-0.807,0.202c-0.303,0.404-0.202,0.807,0.303,1.312l0.202-0.202c0.101,0.101,0.202,0.202,0.404,0.202
		c0.202,0,0.404-0.101,0.807-0.202c0.303-0.101,0.605-0.202,0.706-0.202c0.303-0.101,0.404-0.404,0.202-0.706
		C173.473,10.383,173.473,10.081,173.675,9.98z M159.147,18.757c-0.101-0.303-0.101-0.605-0.202-0.908
		c-0.101-0.404-0.101-0.706,0.101-0.908c-0.404-2.421-1.211-3.834-2.32-4.237c-0.908,1.009-1.412,2.22-1.614,3.531
		c0.101,0.706,0.202,1.412,0.202,2.22c0.202,0.605,0.605,1.412,1.412,2.522c0.303,0.202,0.605,0.404,0.908,0.706
		c0.303,0.202,0.605,0.303,0.807,0.202c0.303,0.202,0.504,0.404,0.504,0.404C159.046,19.967,159.147,18.858,159.147,18.757z
		 M159.046,35.403l-0.202-0.202L159.046,35l-0.202-0.202c0-0.101,0-0.202,0.202-0.404c-0.202-0.504-0.202-1.211-0.101-2.119
		c0.202-0.908,0.101-1.513-0.101-2.018c-0.605,0.101-1.412,0.807-2.623,2.22c0,0.202-0.202,0.706-0.404,1.312
		c-0.202,0.605-0.303,1.11-0.303,1.513c0,0.303,0.101,0.605,0.202,0.908c-0.101,0.706,0.101,1.412,0.404,2.119
		c0.404,0.807,0.807,1.312,1.412,1.715c0.404-0.706,0.605-1.211,0.504-1.513c0.303-0.303,0.504-0.807,0.504-1.715
		C158.643,36.311,158.744,35.706,159.046,35.403z M166.007,29.451l-0.404-0.303c0.101-0.605-0.202-1.11-0.706-1.614
		c-0.605-0.404-1.11-0.807-1.614-1.11l2.018-2.32l-0.202-0.202l0.404-0.504c-0.605,0.504-1.917,1.412-4.035,2.522
		c-1.715,0.908-2.926,1.917-3.632,3.027l0.202,0.202l0.404-0.404c0.404-0.202,0.605-0.303,0.706-0.202
		c0.303-0.303,0.807-0.504,1.312-0.605c0.807-0.202,1.312-0.303,1.412-0.404c0.101,0.202,0.303,0.202,0.504,0.101
		c0.202-0.101,0.404-0.101,0.504,0.101l0.202-0.202c0.807,0.202,1.312,0.504,1.715,0.706c0.605,0.404,0.908,0.908,1.009,1.513
		L166.007,29.451z M161.064,38.026c-0.101-0.404-0.202-0.908-0.202-1.412c0-0.303,0-0.908,0.101-1.715
		c0.101-0.807,0.101-1.412,0.101-1.816c0-0.303,0-0.605-0.101-0.908c-0.101,0.303-0.202,0.807-0.202,1.513
		c0.101,0.303,0.101,0.706,0,1.11c-0.101,0.605-0.202,1.009-0.202,1.211c0,0.303,0.101,0.605,0.202,0.908
		c-0.202,0.303-0.303,0.807-0.404,1.513c-0.101,0.605-0.202,1.211-0.404,1.513l0.202,0.202c-0.303,0.706-0.807,1.614-1.614,2.926
		c0.504-0.202,1.11-1.009,1.715-2.32l0.303-1.513C160.66,38.934,160.761,38.531,161.064,38.026z M160.055,34.394
		c-0.202,0.404-0.303,0.605-0.202,0.706c0.101,0.101,0,0.202-0.101,0.303c0.101,0.303,0.202,0.605,0.202,0.908
		c0,0.404-0.101,0.908-0.303,1.513c-0.202,0.605-0.303,1.11-0.303,1.312l0.504-1.211c-0.101-0.202-0.101-0.504,0-0.908
		c0.101-0.504,0.202-0.807,0.202-1.009s-0.101-0.504-0.202-0.706c0.404-1.009,0.404-1.917,0.202-2.522L160.055,34.394
		L160.055,34.394z M160.055,17.143v-1.009l-0.303-1.412L160.055,17.143z M160.358,20.472l-0.404,0.504
		c0.202,0.504,0.202,1.11,0.101,2.018c-0.101,0.908-0.101,1.513,0.101,2.018c-0.101-0.101,0-0.303,0.101-0.605
		c0.101-0.202,0-0.303-0.101-0.504c0.101-0.404,0.202-1.009,0.101-1.715C160.257,21.38,160.257,20.775,160.358,20.472z
		 M160.257,19.867c0.101-0.605,0.101-1.412,0-2.421c-0.101,0.202-0.202,0.404-0.202,0.706c0,0.202,0,0.504,0.101,0.908
		C160.257,19.463,160.257,19.766,160.257,19.867z M161.367,24.507c0-0.101,0-0.202-0.202-0.303l0.202-0.202l-0.202-0.202
		c0.404-1.816,0.504-4.439,0.202-7.869c-0.303-0.504-0.504-1.211-0.504-2.22c-0.101-0.202-0.303-0.605-0.605-1.009l0.303,0.706
		c-0.101,0.202,0,0.504,0.101,0.807s0.101,0.605,0.101,0.706c0.202,0.101,0.404,0.404,0.303,0.807c0,0.404,0,0.706,0.202,0.807
		c-0.101,0.202-0.202,0.504-0.202,0.807c0,0.202,0,0.504,0.101,0.908s0.101,0.706,0.101,0.908s0,0.303-0.101,0.404
		c0,0.202,0,0.404,0.202,0.706c-0.202,0.605-0.202,1.513-0.202,2.724c-0.101,0.202-0.101,0.404-0.101,0.706
		c0,0.303,0,0.504-0.101,0.605C161.266,24.507,161.367,24.608,161.367,24.507z M166.915,18.757c0.101-0.303,0.202-0.706,0.202-1.11
		c0-0.504-0.101-0.908-0.202-1.211c0.101-0.202,0.202-0.404,0.202-0.605c0-0.202-0.101-0.504-0.303-0.908
		c-0.202-0.404-0.404-0.706-0.404-0.807c-0.303,0.202-0.504,0.404-0.504,0.504c0,0,0.101,0.101,0.202,0.101
		c-0.202,0.101-0.404,0.303-0.404,0.605c0,0.303-0.101,0.504-0.202,0.605c0.101,0.303,0,1.11-0.404,2.22
		c0.101,0.605,0.202,1.11,0.202,1.816c0,0.706-0.101,1.211-0.202,1.816c0.101,0.101,0.202,0.303,0.404,0.404
		c0.908-0.908,1.412-1.816,1.412-2.724C166.915,19.16,166.915,18.959,166.915,18.757z M183.663,20.976
		c0.101,0.706,0,1.312-0.504,2.018c-0.706,1.513-2.119,2.22-4.439,2.22c-0.504-0.202-1.009-0.504-1.513-0.807
		c-0.605-0.303-1.009-0.807-1.211-1.412c0.101-0.101,0-0.303-0.202-0.706c0.303-1.412,1.009-2.119,1.917-2.32
		c0.101,0,0.303,0,0.504-0.101c0.303-0.101,0.404-0.101,0.404-0.101c0.202,0,0.202,0.202,0.202,0.504
		c-0.504,0.202-0.706,0.605-0.706,1.11s0.202,0.908,0.504,1.312c0.504,0.504,1.009,0.605,1.614,0.504
		c0.202,0.101,0.908-0.101,1.816-0.504c0.706-0.908,1.009-1.513,1.009-1.816c0-0.202-0.101-0.404-0.202-0.605
		c0-0.202,0-0.504,0.202-0.807c-0.202-0.101-0.202-0.202-0.202-0.303c0.101-0.202,0.202-0.303,0.202-0.404
		c-1.11-2.724-2.724-4.136-4.742-4.237c-0.404-0.101-0.807-0.101-1.211-0.101c-1.816,0-3.329,0.908-4.742,2.724
		c0,0.202-0.101,0.504-0.303,0.807c-0.202,0.303-0.303,0.504-0.303,0.807c0,0.101,0.101,0.202,0.101,0.303s-0.101,0.404-0.303,0.706
		s-0.303,0.504-0.303,0.807l0.202,0.202l-0.202,0.202c0.101,0.101,0.202,0.202,0.202,0.303s-0.101,0.202-0.202,0.404
		c-0.101,0.202-0.202,0.303-0.202,0.303c-0.202-0.202-0.303-0.404-0.303-0.706c0-0.101,0-0.303,0.101-0.605s0.101-0.504,0.101-0.605
		c0-0.101,0-0.202-0.101-0.303c0-1.11,0.504-2.22,1.312-3.228s1.816-1.715,2.926-2.119c0.303,0,1.009-0.101,2.22-0.504
		c2.522,0.404,4.237,1.312,5.145,2.623l1.11,2.724c0-0.101,0.101,0.202,0.202,1.009C183.865,20.371,183.865,20.775,183.663,20.976z
		 M174.684,45.189c-0.807,0.101-1.211,0.202-1.211,0.202c-0.202,0.101-0.404,0.202-0.706,0.303
		c-0.202,0.101-0.504,0.101-0.706,0.101c0.202-0.101,0.706-0.202,1.312-0.202C173.978,45.492,174.381,45.391,174.684,45.189z
		 M176.096,44.281l-1.009,0.706l0.504-0.202L176.096,44.281z M177.912,23.599c0.101-0.202,0-0.303-0.101-0.504
		c-0.101-0.101-0.303-0.303-0.404-0.404l0.202,0.202l-0.202,0.202L177.912,23.599z"/>
	<path id="XMLID_71_" fill="#673E1B" d="M225.935,45.29c-0.202,1.211-0.908,2.119-1.917,2.825c-0.908,0.303-1.513,0.504-1.816,0.504
		c-0.404,0-0.706-0.101-0.908-0.404c-0.303,0.101-0.706,0.101-1.211-0.101c-0.706-0.202-1.11-0.303-1.312-0.303l-0.202-0.202
		c-0.303,0-0.605-0.101-1.11-0.404l-1.11-0.706c-0.202-0.101-0.504-0.303-0.908-0.807c-0.303-0.303-0.706-0.504-1.009-0.404
		c-1.412,1.513-2.926,2.32-4.54,2.421l-0.303,0.303c-0.101-0.101-0.202-0.202-0.504-0.202l-0.404,0.404
		c-0.202-0.101-0.303-0.202-0.404-0.202c-0.303-0.101-0.706-0.101-1.211,0c-0.404,0.101-0.807-0.202-1.412-0.706
		c-0.504-0.504-0.908-0.807-1.211-0.807c-0.303,0-0.605,0.202-0.908,0.605c-0.605,0.504-1.513,0.807-2.623,1.009
		c-0.202-0.101-0.303-0.202-0.303-0.202c-0.101,0.101-0.303,0.101-0.404,0.101c-0.202,0-0.504-0.101-1.009-0.404
		c-0.504-0.202-0.807-0.404-1.009-0.404c-0.908-0.504-1.614-1.11-2.119-1.917l-0.202-0.202c-0.202,0.101-0.303,0.202-0.404,0.202
		c-0.101-0.101-0.202-0.202-0.202-0.303c0.101-0.101,0.303-0.101,0.404-0.101c0.303,0,0.706,0.202,1.009,0.706
		c0.504,0.605,0.807,0.908,0.908,1.009l2.119,1.009l0.202-0.202c0.101,0.101,0.202,0.202,0.404,0.202c0.303,0,0.504,0,0.504,0
		l0.202-0.202c0.101,0.101,0.202,0.202,0.303,0.202s0.202-0.101,0.404-0.202c0.202-0.101,0.303-0.202,0.404-0.202
		c0.504,0.101,1.11-0.404,1.917-1.614c-0.101-0.202-0.101-0.404,0-0.706c-0.101-0.404-0.605-1.009-1.412-1.816
		c0.101,0-0.303,0-1.11,0c-0.404,0-0.706,0.202-0.807,0.504c-0.101,0.202-0.202,0.404-0.202,0.605c0,0.605,0.303,1.009,0.807,1.211
		c0.202-0.101,0.404,0,0.706,0.303c-0.504,0.202-1.11,0.303-1.614,0.303c-1.312,0-2.421-0.404-3.329-1.312
		c-0.202-0.303-0.404-0.605-0.706-1.009c-0.202-0.303-0.504-0.504-0.908-0.605c-0.605,0.605-1.11,1.211-1.715,1.715
		c-0.706,0.605-1.412,0.908-2.119,0.908c-0.605,0.504-1.614,0.504-3.027,0.202l-0.202,0.202l-0.404-0.404
		c0.303-0.202,0.605-0.404,0.908-0.605c0.303-0.202,0.504-0.504,0.504-0.807c0.101-0.605-0.101-1.11-0.504-1.412c0,0-0.404,0-1.11,0
		c-0.404,0-0.706,0.101-1.009,0.303c-0.303,0.202-0.404,0.605-0.404,1.11v1.312c0.303,0.605,1.009,1.211,2.119,1.816h1.412
		c1.917-0.202,3.531-0.908,4.742-2.119l0.202,0.202c-1.009,1.211-1.917,1.816-2.926,1.715c-0.807,0.303-1.614,0.404-2.421,0.404
		c-0.908,0-1.816-0.202-2.421-0.605c-0.404-0.202-0.706-0.605-0.807-1.211c-0.101-0.504-0.303-0.908-0.404-1.412
		c0.303-1.11,0.908-1.816,1.715-2.119c0.202,0.101,0.303,0.202,0.404,0.202l0.202-0.202c0.202,0.101,0.303,0.202,0.404,0.202
		l0.202-0.202c0.303,0.504,0.706,0.807,1.312,0.807c0.303,0,0.706-0.101,1.009-0.303c1.312-0.807,2.421-1.816,3.128-3.128
		c0,0-0.404-0.404-1.009-1.211l-0.202,0.202c-2.119-1.715-3.128-3.935-3.128-6.659v-2.22c0.303-1.312,0.605-2.22,0.807-2.724
		c0.404-1.009,0.908-1.816,1.513-2.421c1.614-1.715,3.329-2.825,5.246-3.43c-0.404-0.303-1.009-0.807-1.917-1.211
		c-0.908-0.504-1.513-0.908-1.917-1.211c-1.211-1.312-2.018-2.623-2.623-3.834c0-0.202,0-0.605-0.101-1.009
		c-0.101-0.504-0.101-0.807-0.101-0.908c0.605-0.202,0.605-0.605,0.202-1.211c0.101-0.101,0.504-0.504,0.908-1.211
		c0.404-0.504,0.706-0.807,1.11-0.807c0.101,0,0.303,0,0.404,0.101c0.404-0.303,0.706-0.404,0.908-0.202
		c-1.11,0.404-2.018,0.908-2.421,1.614c0.101,0.101,0,0.404-0.202,0.807c-0.202,0.404-0.303,0.605-0.303,0.807
		c0,0.101,0,0.202,0.101,0.303c-0.101,0.303-0.202,0.706-0.101,1.11c0.101,0.404,0.202,0.807,0.303,1.11
		c0.605,1.715,2.522,3.43,5.751,5.044l0.202-0.202c0.101,0,0.504,0.202,0.908,0.404c0.504,0.202,0.908,0.303,1.11,0.303
		c0.202,0,0.404-0.101,0.605-0.202c0-0.101,0.101-0.404,0.303-0.807c0.101-0.303,0.101-0.605,0.101-0.706
		c0.303-0.605,0.605-1.513,0.908-2.724c0.303-1.513,0.504-2.421,0.706-2.926c-0.101-0.101-0.202-0.202-0.202-0.303
		c0-0.101,0.101-0.202,0.202-0.404c0.101-0.202,0.202-0.303,0.202-0.404l-0.202-0.202c0-0.706,0-1.614-0.202-2.825
		c0,0-0.101-0.202-0.303-0.504l-0.706,1.11c0.101,0.101,0.202,0.202,0.101,0.303c-0.101,0.202-0.101,0.303-0.101,0.404
		c-0.101,0.202-0.202,0.303-0.404,0.303c-0.101,0-0.303-0.101-0.404-0.202c-0.202-0.101-0.303-0.202-0.404-0.202
		c-0.303-0.202-0.504-0.404-0.605-0.807c-0.101-0.303-0.202-0.706-0.303-1.009c0.101-0.908,1.009-1.816,2.825-2.421
		c0.202,0.101,0.303,0.202,0.404,0.202c0.504,0,1.11,0.101,1.917,0.404c0.504,0.404,1.312,0.908,2.421,1.412
		c0.605-0.908,1.614-1.513,3.027-1.816c0.101,0.101,0.404,0.101,0.908,0.101c0.504-0.101,0.807,0,1.009,0.303
		c0.202,0,0.404,0,0.706,0.202c0.504,0.303,0.706,0.504,0.706,0.504c0.504,0.504,0.504,1.211,0.202,2.32
		c-0.504,0.605-1.11,1.009-1.715,1.009c-0.303,0-0.404-0.303-0.303-0.908c0.101-0.605,0.101-0.908-0.101-0.908
		c-0.101,0-0.303,0.101-0.605,0.303c0,0.807,0,1.917,0.202,3.43c-0.101,0.605-0.101,1.11,0.202,1.614c0,0.303,0,0.908,0,1.614
		c0.504,0.404,0.807,0.605,1.009,0.504l0.202-0.202c0.202,0.101,0.303,0.202,0.404,0.202c0,0,0.101-0.101,0.202-0.101
		c0.101,0,0.202,0,0.404,0.101c0.202,0.101,0.303,0.101,0.404,0.101c0.101,0,0.303-0.101,0.404-0.202
		c0.807,0.303,2.018,0.908,3.632,1.614c0.202,0.303,0.504,0.605,1.009,0.807c0.504,0.202,0.807,0.404,1.009,0.605l0.202-0.202
		c-0.706-1.614-1.715-3.935-2.926-7.163c0-0.303,0.101-0.807,0.303-1.614c0-0.202,0.101-0.605,0.404-1.11
		c0.202-0.605,0.404-1.009,0.404-1.312l0.706-0.303c0.101,0.303,0,0.605-0.303,0.908c-0.303,0.303-0.504,0.504-0.504,0.706
		l-0.908,1.513l0.504,2.119l-0.202,0.202c0.303,0.605,0.605,1.412,0.908,2.421c0.504,1.009,1.312,2.522,2.421,4.54l-0.202,0.202
		c0.303,0.807,0.706,1.513,1.11,2.32c0.303,0.908,0.504,1.816,0.504,2.522l0.202,0.202c-0.101,0.202-0.202,0.303-0.202,0.404v1.917
		l0.202,0.202c-0.202,0.101-0.202,0.303-0.101,0.404c0.101,0.202,0.101,0.303-0.101,0.404c0.101,0.101,0.202,0.202,0.202,0.303
		c0,0.101-0.101,0.202-0.202,0.404c-0.101,0.202-0.202,0.303-0.202,0.404c0.101,0.101,0.202,0.202,0.202,0.303
		s-0.101,0.202-0.202,0.404c-0.101,0.202-0.202,0.303-0.202,0.303c0,0.101-0.101,0.706-0.404,1.816
		c-0.202,0.404-0.303,0.706-0.504,1.11c-0.202,0.504-0.404,0.706-0.706,0.807c-0.101-0.404,0-0.908,0.303-1.513
		c0.303-0.807,0.504-1.312,0.605-1.513l0.202-0.202c-0.101-0.101,0-0.404,0.101-0.807s0.101-0.605,0.101-0.807
		c0.303-0.908,0.404-1.816,0.404-2.825c0-3.128-1.211-5.751-3.531-7.768c-0.706-0.504-1.816-1.11-3.329-2.119
		c-0.303,0.101-0.807,0-1.614-0.101c-0.706-0.101-1.312-0.202-1.614-0.101l-0.202-0.202c-0.303,0.101-0.404,0.303-0.303,0.706
		c0.101,0.404,0.101,0.605,0,0.706l1.009,3.632l-0.202,0.202c0.202,0.706,0.605,1.715,1.312,3.027
		c0.605-0.404,0.706-1.11,0.303-2.32c0.202,0,0.706,0.303,1.211,0.908c0,0.303,0.101,0.706,0.504,1.211
		c-0.101,0.101-0.101,0.303,0,0.504c0.101,0.303,0.101,0.504,0.101,0.504c0,0.202-0.101,0.303-0.303,0.404
		c0.101,0.101,0.101,0.202,0.101,0.404c0,0.202-0.101,0.404-0.303,0.807c-0.202,0.303-0.202,0.605-0.101,0.807
		c-0.504,0.202-0.807,0.504-0.807,0.908c0,0.202,0.101,0.504,0.404,1.009c0.303,0.504,0.404,0.807,0.404,1.009
		c-0.101,0.101-0.202,0.202-0.202,0.303c0,0.101,0.101,0.202,0.202,0.404c0.101,0.202,0.202,0.303,0.202,0.404l0.404,0.404
		c-0.101,0.101,0,0.605,0.303,1.614c1.009,3.43,1.614,5.246,1.715,5.549c0.908,2.018,2.22,3.43,3.935,4.035
		c0.303-0.303,1.211-0.706,2.421-1.211C225.228,43.373,226.035,44.18,225.935,45.29z M199.704,22.691
		c0.101-0.404-0.101-0.706-0.404-0.908c-0.101,0-0.202,0-0.303,0.202c-0.101-0.101-0.101-0.202-0.202-0.202
		c0,0-0.101,0.101-0.303,0.202c-0.101,0.101-0.202,0.101-0.303,0c-0.101,0-0.202,0.101-0.504,0.303
		c-0.303,0.202-0.404,0.202-0.504,0.101c-3.935,1.614-5.952,3.935-6.053,6.86c-0.504,0.908-0.605,1.917-0.504,3.027
		c-0.101,0.202-0.202,0.504-0.202,0.908c0,0.504,0,0.807,0,0.807c0.504,2.522,1.715,4.237,3.935,5.246
		c0.908-1.211,1.513-2.926,1.917-5.145c0.404-0.404,0.706-1.11,0.908-2.22c0.202-1.009,0.404-1.816,0.706-2.119
		c0,0-0.101-0.101-0.101-0.202c0-0.101,0-0.202,0.101-0.303c0.101-0.101,0.101-0.202,0.101-0.303c0-0.101,0-0.101-0.101-0.202
		c0.303-0.202,0.504-0.706,0.605-1.312c0.101-0.605,0.303-1.11,0.404-1.312c-0.101-0.101,0-0.303,0.101-0.706
		c0.101-0.303,0.202-0.605,0.101-0.706l0.303-0.404c0-0.101-0.101-0.202-0.101-0.303c0-0.101,0.101-0.303,0.202-0.504
		c0.101-0.202,0.202-0.404,0.202-0.504s0-0.202-0.101-0.303L199.704,22.691z M198.796,29.451c-0.101-0.202-0.202-0.303-0.202-0.404
		c0,0.101,0,0.202-0.101,0.303c-0.101,0.101-0.202,0.202-0.202,0.202c0,0.101,0.101,0.101,0.202,0.202l-0.404,0.404l0.202,0.202
		c0,0-0.101,0.202-0.303,0.504l0.202,0.202c-0.101,0.101-0.202,0.303-0.202,0.605c0,0.303-0.101,0.504-0.404,0.605
		c-0.101,1.11-0.605,2.522-1.412,4.237c-0.101,0.303-0.202,0.706-0.202,1.211c-0.303,0.202-0.504,0.504-0.605,1.11
		c-0.101,0.605-0.303,1.009-0.605,1.211c-0.101,0.404-0.504,1.009-1.009,1.614c-0.605,0.706-0.908,1.211-1.009,1.513
		c0.605-0.303,1.211-0.908,1.715-1.816c0.404-0.807,0.807-1.513,1.211-2.22c0-0.202,0.101-0.605,0.303-0.908
		c0.202-0.404,0.303-0.706,0.303-0.807c0-0.101,0-0.202-0.101-0.303c0.504-0.605,0.908-1.513,1.211-2.724
		c0.404-1.513,0.706-2.421,0.908-2.926c-0.101-0.101,0-0.404,0.101-0.807c0.101-0.404,0.202-0.605,0.101-0.807L198.796,29.451z
		 M210.902,33.184c0.202-0.404,0.404-0.706,0.404-1.009s-0.101-0.605-0.404-0.908l-0.202,0.202l-0.202-0.202
		c-0.101,0.101-0.202,0.202-0.303,0.202c-0.101,0-0.202-0.101-0.303-0.202s-0.202-0.202-0.303-0.202s-0.101,0-0.202,0.101
		c0.101,0.101,0,0.706-0.202,1.715c-0.202,0.303-0.605,0.404-1.11,0.404c-0.504,0-0.908,0-1.11,0.202
		c-0.101-0.202-0.202-0.303-0.202-0.404c0.303-0.303,0.807-0.404,1.412-0.303c0.404-0.101,0.605-0.404,0.605-0.807
		c0-0.404,0-0.706,0.202-0.807c-2.421-1.614-3.834-4.035-4.237-7.062c0.101-0.303,0.101-0.807,0.202-1.614
		c0-0.605,0.202-1.11,0.504-1.513c0.101-0.202,0.202-0.504,0.202-0.706c0-0.202-0.101-0.605-0.303-1.11
		c-0.202-0.504-0.303-0.908-0.303-1.11l-0.303-0.404l0.202-0.202h-0.202c-0.101,0.303-0.202,0.504-0.303,0.807
		c-0.101,0.303-0.101,0.706-0.101,0.908c-0.202,0.908-0.404,1.412-0.404,1.412c-0.202,0.303-0.303,0.807-0.404,1.412
		c-0.101,0.504-0.202,0.908-0.303,1.412c-0.504,0.504-0.706,1.009-0.504,1.614c0,0.101-0.605,2.22-1.715,6.255
		c0,0.303,0.202,0.807,0.504,1.412c0.605,0,1.513,0.101,2.825,0.303c0,0-0.101,0.202-0.404,0.504c-0.303,0-0.908,0-1.715,0
		c-0.101,0.101-0.202,0.202-0.404,0.202c-0.101,0-0.303,0-0.504-0.101c-0.202-0.101-0.404-0.101-0.504-0.101
		c-0.303-0.101-0.706-0.303-1.009-0.404c-0.404-0.202-0.605-0.404-0.706-0.807l0.202-0.202c0-0.101,0-0.202-0.202-0.404
		c0.202-0.706,0.303-1.11,0.202-1.211c0.202-0.101,0.404-0.504,0.404-1.009c0-0.504,0.101-0.807,0.404-1.009
		c0.202-1.11,0.303-1.715,0.303-1.715l0.202-0.202c-0.101-0.202,0.202-1.009,0.706-2.22l-0.202-0.202l0.303-0.404
		c0-0.101,0-0.202,0-0.504c0.101-0.303,0-0.504,0-0.504c0.303-0.504,0.504-1.11,0.706-1.816c0.202-0.908,0.404-1.513,0.605-1.917
		c0.202-1.009,0.303-1.513,0.303-1.614c0.303-0.504,0.504-1.11,0.706-1.917l0.404-1.917h-0.404c0,0.504-0.202,1.11-0.504,1.816
		c-0.303,0.807-0.504,1.412-0.605,1.816c0.101,0.101,0,0.404-0.101,0.908c-0.101,0.404-0.202,0.807-0.101,1.009
		c0,0.101-0.202,0.404-0.404,0.807c-0.202,0.404-0.303,0.706-0.303,0.908c0,0.101,0,0.202,0.101,0.303
		c-0.504,0.504-0.605,1.211-0.504,1.917c-0.202,0.202-0.404,0.605-0.404,1.009c-0.101,0.404-0.202,0.807-0.404,1.11
		c0,0.807-0.101,1.312-0.504,1.715c0.101,0.101,0.202,0.202,0.202,0.404c0,0.101-0.101,0.303-0.202,0.605
		c-0.101,0.303-0.202,0.404-0.202,0.504c0,0.101,0,0.101,0.101,0.202c-0.202,0.404-0.404,1.211-0.706,2.421
		c-0.202,1.009-0.504,1.816-0.908,2.32c0.101,0.202,0.101,0.303,0.101,0.504c0,0.303-0.202,0.706-0.504,1.312
		c-0.303,0.605-0.504,1.009-0.504,1.312c0,0.101-0.202,0.404-0.404,0.807s-0.303,0.706-0.303,0.908c0,0.101,0,0.202,0.101,0.303
		l-0.404,0.404l0.202,0.202l-3.027,4.742c1.11-0.908,2.119-2.22,2.926-4.035c0.605-1.513,1.211-3.027,1.816-4.54
		c0.404-0.908,1.11-1.412,2.119-1.412l0.404-0.303c0.303,0.202,0.706,0.202,1.412,0.101c0.605-0.101,1.11-0.101,1.412,0.101
		c0.101-0.101,0.605-0.101,1.412-0.202c0.504-0.202,1.513-0.202,3.128-0.101C209.187,33.789,210.196,33.587,210.902,33.184z
		 M210.398,41.759c0.101-0.202,0.202-0.504,0.202-0.807c0-0.303-0.101-0.605-0.202-0.807c0-0.202,0.101-0.404,0.101-0.706
		c0-1.11-0.303-2.421-0.908-4.035c-0.202-0.101-0.404-0.101-0.706,0c-0.303-0.101-0.706-0.202-1.211-0.202c-0.908,0-1.312,0-1.412,0
		s-0.303,0-0.605,0.202c-0.303,0.202-0.504,0.202-0.605,0.202c-0.101,0-0.303-0.101-0.404-0.303c0,0-0.706,0-2.119,0
		c-0.807,0-1.513,0.101-1.917,0.404c-1.009,0.807-1.513,1.917-1.513,3.228c0,0.303,0,0.504,0.101,0.807
		c0.202,0.101,0.504,0,0.908-0.202c1.412,0,3.027-1.211,4.742-3.632l0.202,0.202c-0.504,1.816-1.614,3.128-3.329,3.935
		c-0.202,0.202-0.807,0.404-1.917,0.504c-0.807,0.101-1.211,0.504-1.11,1.211c0.101,0.404,0.303,0.807,0.504,1.211
		c0.202,0.404,0.504,0.706,0.908,0.706c0.101-0.101,0.404-0.303,0.706-0.504c0.504-0.101,0.908-0.202,1.312-0.202
		c1.009,0,1.816,0.303,2.22,1.009c0.807-0.807,1.312-1.11,1.715-1.009c0.202-0.101,0.404-0.202,0.706-0.202
		c0.202,0,0.605,0.101,1.211,0.303c0.504,0.202,0.908,0.303,1.211,0.303c0.303,0,0.605-0.101,0.807-0.404
		c0.101-0.202,0.202-0.404,0.303-0.504c0.101-0.202,0.101-0.404,0-0.504L210.398,41.759z M199.906,25.113
		c0,0.101,0,0.202-0.101,0.303s-0.202,0.202-0.202,0.202s0.101,0.101,0.202,0.202l-0.202,0.202
		c-0.303,0.303-0.404,0.706-0.404,1.412c0,0.605-0.101,1.11-0.504,1.412c0.303-0.101,0.504-0.404,0.504-0.908
		c0-0.504,0.101-0.807,0.404-0.908c-0.101-0.101-0.101-0.202,0-0.404c0.101-0.202,0.101-0.303,0.101-0.404s-0.101-0.202-0.202-0.303
		C199.603,25.718,199.704,25.516,199.906,25.113z M212.819,9.173c-0.605-1.009-1.614-1.614-3.027-1.917
		c-0.303,0.303-0.706,0.404-1.009,0.202c-0.303,0.303-0.504,0.404-0.706,0.303c-0.504,0.908-1.009,1.412-1.614,1.412
		c-0.404,0-1.11-0.404-2.018-1.11c-0.908-0.706-1.614-1.11-2.22-1.11c-0.202,0-0.303,0-0.504,0.101
		c-0.101,0.202-0.404,0.404-0.908,0.404c-0.404,0.101-0.706,0.202-0.908,0.404c-0.202,0.202-0.404,0.404-0.404,0.706
		c0,0.202,0.202,0.706,0.504,1.412l0.404-0.404c0-0.101-0.101-0.202-0.202-0.404c0.202-0.303,0.504-0.605,0.908-0.706
		c0.303-0.202,0.605-0.303,1.009-0.504c0.202,0.101,0.404,0.101,0.706,0c0.504,0.202,1.211,0.605,2.119,1.211
		c0.202,0.303,0.404,0.605,0.504,0.908c0.202,0.303,0.404,0.504,0.706,0.504v-0.202c1.11-1.513,2.623-2.22,4.338-2.22
		c0.605,0.303,1.11,0.908,1.614,1.917c0.101-0.101,0.202-0.202,0.303-0.404C212.718,9.374,212.718,9.273,212.819,9.173z
		 M200.41,23.297c-0.202,0.202-0.303,0.706-0.303,1.412c-0.101-0.202-0.101-0.504,0.101-0.706
		C200.208,23.801,200.309,23.599,200.41,23.297z M201.823,18.656l-0.404,0.404l0.202,0.202c-0.605,0.706-0.908,1.614-0.706,2.623
		l-0.303,0.404h0.202c0.101-0.101,0.202-0.202,0.202-0.404l-0.101-0.504c0.202-0.202,0.404-0.706,0.504-1.312
		C201.52,19.261,201.621,18.858,201.823,18.656z M202.327,16.537c-0.101,0-0.202,0-0.404,0.202c0.101,0.101,0.202,0.202,0.202,0.303
		c0,0.101-0.101,0.202-0.202,0.404c-0.101,0.202-0.202,0.303-0.202,0.504c0,0.101,0,0.202,0.101,0.303l0.202-0.202l-0.202-0.202
		l0.404-0.303C201.923,17.244,202.024,16.941,202.327,16.537z M203.235,13.511c-0.101-0.101-0.202-0.202-0.202-0.504v-0.504
		c-0.202,1.211-0.303,1.917-0.303,1.917l-0.504,1.715c0.504-0.504,0.605-1.009,0.504-1.614c0.101-0.101,0.202-0.202,0.202-0.504
		C202.932,13.813,203.033,13.612,203.235,13.511z M205.354,33.285c-0.303,0-0.404-0.303-0.404-0.706s0-0.706-0.101-0.807
		c0.101-0.101,0.202-0.202,0.202-0.303l-0.202-0.202c0-0.101,0-0.303-0.202-0.504c-0.101-0.202-0.303-0.504-0.404-0.706v-0.504
		c0.807,0.807,1.11,1.816,1.11,2.926C205.454,32.78,205.354,33.083,205.354,33.285z M225.329,45.593l-0.202-0.202
		c0-0.101,0.101-0.202,0.202-0.404c-0.101-0.605-0.404-1.009-0.908-1.412c-0.404-0.101-1.009,0-1.715,0.202
		c-0.101,0.303-0.101,0.706,0,1.211l-0.202,0.202l0.202,0.202c0.404,0.706,0.303,1.312-0.404,1.614l-0.202-0.202
		c-0.202,0.202-0.404,0.303-0.807,0.303c-0.303,0-0.504,0-0.706,0.101c-0.706-0.202-1.614-0.605-3.027-1.009
		c-0.504-0.101-1.009-0.504-1.614-1.11c-0.605-0.605-1.211-1.009-1.715-1.11c-0.807,1.412-2.522,2.421-5.246,3.329l-0.202-0.202
		c-0.202,0-0.504,0-0.706,0.202c-0.101-0.101-0.404-0.202-0.908-0.303c-0.504-0.101-0.807-0.404-0.908-0.706l1.412-0.706
		c0.202-0.908,0.202-1.412,0-1.614c-0.202-0.303-0.504-0.404-0.908-0.303c-0.404,0.101-0.706,0.101-0.908-0.101
		c-0.303,0.202-0.605,0.404-0.807,0.605c-0.303,0.202-0.404,0.504-0.404,0.807l0.303,1.11c0.202,0.404,0.404,0.706,0.807,0.908
		c0.807,0.404,1.614,0.605,2.421,0.605c2.018,0,4.237-1.009,6.558-3.027c0.303,0.504,0.908,0.908,1.715,1.412
		c0.202,0.303,0.605,0.605,1.211,0.807c0.504,0.202,0.908,0.404,1.11,0.605c0.706,0.303,1.412,0.404,2.22,0.303
		c0.202,0.101,0.504,0.202,0.706,0.202c0.202,0,0.504-0.101,0.908-0.202c0.404-0.101,0.706-0.202,0.908-0.202
		C224.522,47.005,224.926,46.299,225.329,45.593z M208.481,26.525c0-0.807-0.101-1.412-0.404-1.917c0.101-0.101,0-0.303-0.101-0.605
		c-0.101-0.303-0.101-0.504-0.101-0.605c-0.101-0.101-0.202-0.202-0.202-0.504s-0.101-0.504-0.303-0.504
		c0.101-0.101,0.202-0.202,0.202-0.303c0-0.101,0-0.202-0.101-0.404c-0.101-0.202-0.101-0.303-0.101-0.404c0,0,0-0.101,0.101-0.101
		c-0.504-0.605-0.706-1.211-0.504-1.917c-0.101-0.101-0.202-0.303-0.202-0.605c0-0.303-0.101-0.504-0.303-0.605
		c0-0.101,0.101-0.202,0.101-0.404s-0.101-0.504-0.303-0.807c-0.202-0.504-0.404-0.807-0.504-0.908l0.202-0.202l-0.202-0.202
		c0-0.101,0.101-0.202,0.202-0.404l-0.504-1.009c0,0.101-0.101,0.101-0.101,0.202c0,0.101,0,0.202,0.101,0.303
		c0.101,0.101,0.101,0.202,0.101,0.202c0,0.101-0.101,0.101-0.202,0.202l0.202,0.202c0,0.101,0.101,0.303,0.202,0.605
		c0.101,0.202,0.202,0.404,0.202,0.605c0,0.101-0.101,0.303-0.202,0.404c0.303,0.202,0.504,0.706,0.504,1.412
		c0,0.706,0.101,1.211,0.404,1.412c-0.101,0-0.202,0.101-0.202,0.303l0.101,0.404c0.404,0.807,0.605,1.412,0.605,1.715
		c0,0.202,0,0.404-0.101,0.504c0.706,1.513,1.009,2.522,0.807,3.128l0.202,0.202c0,0.101-0.101,0.202-0.202,0.303
		C208.078,26.424,208.279,26.525,208.481,26.525z M207.472,26.323c0-0.202-0.101-0.404-0.404-0.706
		c0.101-0.101,0.101-0.303,0.101-0.404c0-0.202-0.101-0.504-0.303-0.807c-0.202-0.303-0.303-0.605-0.303-0.706s0-0.202,0.101-0.303
		c-0.303-0.202-0.404-0.504-0.303-0.908c0-0.202,0-0.404-0.101-0.605c-0.101-0.202-0.202-0.303-0.303-0.303
		s-0.202,0.101-0.404,0.202l0.202,0.202c-0.101,0.202-0.202,0.303-0.202,0.404c-0.101,0.202-0.202,0.504-0.101,0.706
		c0.101,0.404,0.101,0.605,0.101,0.706l-0.202,0.202l0.404,0.504l-0.202,0.202c0.101,0.101,0.202,0.303,0.303,0.404
		s0.101,0.303,0.101,0.504l0.605,0.605C206.867,26.323,207.17,26.424,207.472,26.323z M214.736,25.819
		c0-0.101-0.101-0.202-0.202-0.404l0.202-0.202l-0.404-0.404l0.202-0.202l-0.202-0.202l-0.706,1.412
		c-1.009,1.211-2.018,1.816-3.128,1.816c-0.202,0-0.504,0-0.706-0.101c-0.303,0.101-0.605,0.202-0.807,0.202
		c-0.303,0-0.807-0.101-1.312-0.404c-0.605-0.303-1.11-0.504-1.312-0.504c0.303,0.504,0.908,1.211,1.715,2.119
		c0.504,0.404,1.211,0.605,2.22,0.504c0.303,0,0.504,0.101,0.504,0.202c0.101-0.101,0.202-0.202,0.404-0.202h0.504
		c0.404-0.202,0.807-0.404,1.312-0.504c0.504-0.202,0.807-0.504,1.009-0.908c0-0.101,0.202-0.404,0.404-0.807
		c0.202-0.404,0.303-0.706,0.303-0.908s-0.101-0.303-0.202-0.504H214.736z M210.196,26.828c0-0.101-0.101-0.807-0.404-2.119
		c0-0.202-0.101-0.504-0.303-0.908c-0.202-0.303-0.303-0.605-0.303-0.706c0-0.101,0-0.202,0.101-0.303
		c-0.303-0.706-0.605-1.614-0.908-3.027c-0.202-1.312-0.504-2.32-0.908-2.926c0.101-0.101,0.202-0.202,0.202-0.303
		c0-0.101-0.101-0.202-0.202-0.303c-0.101-0.101-0.202-0.202-0.202-0.303c0-0.101,0.101-0.101,0.202-0.202l-0.202-0.202l0.202-0.202
		c-0.202-0.303-0.404-1.211-0.504-2.623c-0.202,1.312-0.202,2.22,0,2.825v1.917c0.303,0.303,0.504,0.706,0.605,1.211
		c0.202,0.908,0.303,1.312,0.303,1.412c-0.101,0.101-0.202,0.303-0.202,0.404c0,0.202,0.101,0.504,0.404,0.908
		c0.303,0.404,0.404,0.706,0.404,0.908c0,0.101,0,0.303-0.101,0.404c0,0.101,0.101,0.202,0.202,0.404
		c0.101,0.202,0.202,0.303,0.202,0.404c0,0.101-0.101,0.202-0.202,0.303l0.404,0.404l-0.202,0.202l0.404,0.504l-0.202,0.202
		c0.101,0.101,0.303,0.504,0.404,1.11C209.49,26.727,209.793,26.929,210.196,26.828z M211.911,39.439
		c-0.202-0.404-0.303-0.706-0.202-0.706c0.101-0.101,0-0.202-0.101-0.303c0-0.101,0.101-0.202,0.101-0.303
		c0-0.101-0.101-0.404-0.303-0.706c-0.202-0.303-0.303-0.504-0.303-0.706c0-0.101,0-0.202,0.101-0.303
		c-0.101-0.303-0.303-0.605-0.706-0.908c0.101,1.009,0.303,2.32,0.807,3.935c-0.101,0.101-0.101,0.404,0,0.706
		c-0.101,0.202-0.202,0.706-0.202,1.614c0,0.706-0.101,1.11-0.504,1.412c0.706-0.202,1.11-0.706,1.11-1.412
		c0-0.101,0-0.303-0.101-0.605c0-0.303,0-0.504,0-0.706C211.81,40.044,211.81,39.741,211.911,39.439z M213.929,41.557
		c-0.202-2.018-0.404-3.128-0.404-3.128c-0.202-0.504-0.404-1.009-0.706-1.513c-0.202-0.504-0.605-0.908-1.11-1.11
		c-0.101,0.202,0,0.404,0.101,0.706s0.101,0.404,0.101,0.504c0.101,0.202,0.202,0.303,0.202,0.404c0,0.303,0.202,0.908,0.504,1.614
		c0.303,0.706,0.404,1.312,0.404,1.816c0,0.303,0.101,0.605,0.101,0.908s-0.101,0.605-0.404,0.807
		c0.101,0.101,0.202,0.202,0.202,0.303c0,0.101-0.101,0.202-0.202,0.404c-0.101,0.202-0.202,0.303-0.202,0.404h0.202
		C213.324,43.474,213.727,42.768,213.929,41.557z"/>
</g>
<g id="XMLID_3_">
	<path id="XMLID_2_" fill="#BCE0DE" d="M277.69,12.502h-34.806c-0.605,0-1.11,0.504-1.11,1.11l0,0c0,0.605,0.504,1.11,1.11,1.11
		h34.806c0.605,0,1.11-0.504,1.11-1.11l0,0C278.8,13.006,278.295,12.502,277.69,12.502z"/>
	<path id="XMLID_4_" fill="#BCE0DE" d="M287.375,28.038h-34.806c-0.605,0-1.11,0.504-1.11,1.11l0,0c0,0.605,0.504,1.11,1.11,1.11
		h34.806c0.605,0,1.11-0.504,1.11-1.11l0,0C288.485,28.543,287.98,28.038,287.375,28.038z"/>
	<path id="XMLID_5_" fill="#BCE0DE" d="M277.69,43.676h-34.806c-0.605,0-1.11,0.504-1.11,1.11l0,0c0,0.605,0.504,1.11,1.11,1.11
		h34.806c0.605,0,1.11-0.504,1.11-1.11l0,0C278.8,44.18,278.295,43.676,277.69,43.676z"/>
	<path id="XMLID_8_" fill="#BCE0DE" d="M16.795,12.502h34.806c0.605,0,1.11,0.504,1.11,1.11l0,0c0,0.605-0.504,1.11-1.11,1.11
		H16.795c-0.605,0-1.11-0.504-1.11-1.11l0,0C15.685,13.006,16.19,12.502,16.795,12.502z"/>
	<path id="XMLID_7_" fill="#BCE0DE" d="M7.11,28.038h34.806c0.605,0,1.11,0.504,1.11,1.11l0,0c0,0.605-0.504,1.11-1.11,1.11H7.11
		c-0.605,0-1.11-0.504-1.11-1.11l0,0C6,28.543,6.504,28.038,7.11,28.038z"/>
	<path id="XMLID_6_" fill="#BCE0DE" d="M16.795,43.676h34.806c0.605,0,1.11,0.504,1.11,1.11l0,0c0,0.605-0.504,1.11-1.11,1.11
		H16.795c-0.605,0-1.11-0.504-1.11-1.11l0,0C15.685,44.18,16.19,43.676,16.795,43.676z"/>
</g>
<g>
	<path fill="#673E1B" d="M131.56,56.028v4.007h4.184v-4.007h1.129v9.575h-1.129v-4.489h-4.184v4.489h-1.117v-9.575H131.56z"/>
	<path fill="#673E1B" d="M146.199,60.717c0,3.296-1.809,5.043-4.017,5.043c-2.284,0-3.888-1.96-3.888-4.858
		c0-3.04,1.707-5.029,4.017-5.029C144.672,55.872,146.199,57.875,146.199,60.717z M139.488,60.873c0,2.046,1.001,3.878,2.759,3.878
		c1.771,0,2.771-1.804,2.771-3.978c0-1.903-0.898-3.893-2.759-3.893C140.412,56.881,139.488,58.771,139.488,60.873z"/>
	<path fill="#673E1B" d="M154.937,61.398c-0.064-1.335-0.142-2.94-0.129-4.134h-0.038c-0.295,1.122-0.654,2.315-1.091,3.637
		l-1.527,4.646h-0.847l-1.399-4.561c-0.411-1.35-0.757-2.585-1.001-3.722h-0.026c-0.025,1.193-0.09,2.799-0.167,4.233l-0.231,4.105
		h-1.065l0.604-9.575h1.424l1.476,4.632c0.359,1.179,0.655,2.23,0.873,3.225h0.039c0.218-0.966,0.525-2.018,0.911-3.225l1.539-4.632
		h1.425l0.539,9.575h-1.091L154.937,61.398z"/>
	<path fill="#673E1B" d="M162.44,61.114h-3.362v3.452h3.747v1.037h-4.863v-9.575h4.671v1.037h-3.555v3.026h3.362V61.114z"/>
</g>
</svg>
